  0
SECTION
  2
HEADER
  9
$ANGBASE
  50
0.0
  9
$ANGDIR
  70
1
  9
$MEASUREMENT
  70
1
  0
ENDSEC
  0
SECTION
  2
TABLES
  0
TABLE
  2
LTYPE
  70
4
  0
LTYPE
  5
40F
  2
CONTINUOUS
  70
0
  3
Solid line
  72
65
  73
0
  40
0.0
  0
LTYPE
  5
410
  2
DASHDOT
 70
0
  3
Dash Dot ____ _ ____ _
 72
65
 73
4
 40
2.0
 49
1.25
 49
-0.25
 49
0.25
 49
-0.25
  0
LTYPE
  5
411
  2
DASHED
 70
0
  3
Dashed __ __ __ __ __
 72
65
 73
2
 40
0.75
 49
0.5
 49
-0.25
  0
LTYPE
  5
43B
  2
DOTTED
 70
0
  3
Dotted .  .  .  .
 72
65
 73
2
 40
0.2
 49
0.0
 49
-0.2
  0
ENDTAB
  0
TABLE
  2
STYLE
  70
4
  0
STYLE
  2
KICAD
  70
0
  40
0
  41
1
  42
1
  50
0
  71
0
  3
isocp.shx
  0
STYLE
  2
KICADB
  70
0
  40
0
  41
1
  42
1
  50
0
  71
0
  3
isocp.shx
  0
STYLE
  2
KICADI
  70
0
  40
0
  41
1
  42
1
  50
15
  71
0
  3
isocp.shx
  0
STYLE
  2
KICADBI
  70
0
  40
0
  41
1
  42
1
  50
15
  71
0
  3
isocp.shx
  0
ENDTAB
  0
TABLE
  2
LAYER
  70
1
  0
LAYER
  2
BLACK
  70
0
  62
7
  6
CONTINUOUS
  0
ENDTAB
  0
ENDSEC
  0
SECTION
  2
ENTITIES
0
LINE
8
BLACK
6
CONTINUOUS
10
177.711
20
-94.2086
11
162.471
21
-94.2086
0
LINE
8
BLACK
6
CONTINUOUS
10
161.836
20
-93.5736
11
161.836
21
-74.5236
0
LINE
8
BLACK
6
CONTINUOUS
10
161.201
20
-73.8886
11
119.291
21
-73.8886
0
LINE
8
BLACK
6
CONTINUOUS
10
118.656
20
-74.5236
11
118.656
21
-135.484
0
LINE
8
BLACK
6
CONTINUOUS
10
119.291
20
-136.119
11
177.711
21
-136.119
0
LINE
8
BLACK
6
CONTINUOUS
10
178.346
20
-94.8436
11
178.346
21
-135.484
0
LINE
8
BLACK
6
CONTINUOUS
10
178.346
20
-94.8436
11
177.711
21
-94.2086
0
LINE
8
BLACK
6
CONTINUOUS
10
161.836
20
-93.5736
11
162.471
21
-94.2086
0
LINE
8
BLACK
6
CONTINUOUS
10
161.201
20
-73.8886
11
161.836
21
-74.5236
0
LINE
8
BLACK
6
CONTINUOUS
10
118.656
20
-74.5236
11
119.291
21
-73.8886
0
LINE
8
BLACK
6
CONTINUOUS
10
118.656
20
-135.484
11
119.291
21
-136.119
0
LINE
8
BLACK
6
CONTINUOUS
10
177.711
20
-136.119
11
178.346
21
-135.484
0
LINE
8
BLACK
6
CONTINUOUS
10
121.105
20
-139.35
11
121.105
21
-137.35
0
LINE
8
BLACK
6
CONTINUOUS
10
121.105
20
-137.35
11
121.581
21
-137.35
0
LINE
8
BLACK
6
CONTINUOUS
10
121.581
20
-137.35
11
121.867
21
-137.446
0
LINE
8
BLACK
6
CONTINUOUS
10
121.867
20
-137.446
11
122.058
21
-137.636
0
LINE
8
BLACK
6
CONTINUOUS
10
122.058
20
-137.636
11
122.153
21
-137.827
0
LINE
8
BLACK
6
CONTINUOUS
10
122.153
20
-137.827
11
122.248
21
-138.208
0
LINE
8
BLACK
6
CONTINUOUS
10
122.248
20
-138.208
11
122.248
21
-138.493
0
LINE
8
BLACK
6
CONTINUOUS
10
122.248
20
-138.493
11
122.153
21
-138.874
0
LINE
8
BLACK
6
CONTINUOUS
10
122.153
20
-138.874
11
122.058
21
-139.065
0
LINE
8
BLACK
6
CONTINUOUS
10
122.058
20
-139.065
11
121.867
21
-139.255
0
LINE
8
BLACK
6
CONTINUOUS
10
121.867
20
-139.255
11
121.581
21
-139.35
0
LINE
8
BLACK
6
CONTINUOUS
10
121.581
20
-139.35
11
121.105
21
-139.35
0
LINE
8
BLACK
6
CONTINUOUS
10
123.105
20
-139.35
11
123.105
21
-138.017
0
LINE
8
BLACK
6
CONTINUOUS
10
123.105
20
-138.398
11
123.201
21
-138.208
0
LINE
8
BLACK
6
CONTINUOUS
10
123.201
20
-138.208
11
123.296
21
-138.112
0
LINE
8
BLACK
6
CONTINUOUS
10
123.296
20
-138.112
11
123.486
21
-138.017
0
LINE
8
BLACK
6
CONTINUOUS
10
123.486
20
-138.017
11
123.677
21
-138.017
0
LINE
8
BLACK
6
CONTINUOUS
10
124.343
20
-139.35
11
124.343
21
-138.017
0
LINE
8
BLACK
6
CONTINUOUS
10
124.343
20
-137.35
11
124.248
21
-137.446
0
LINE
8
BLACK
6
CONTINUOUS
10
124.248
20
-137.446
11
124.343
21
-137.541
0
LINE
8
BLACK
6
CONTINUOUS
10
124.343
20
-137.541
11
124.439
21
-137.446
0
LINE
8
BLACK
6
CONTINUOUS
10
124.439
20
-137.446
11
124.343
21
-137.35
0
LINE
8
BLACK
6
CONTINUOUS
10
124.343
20
-137.35
11
124.343
21
-137.541
0
LINE
8
BLACK
6
CONTINUOUS
10
125.581
20
-139.35
11
125.391
21
-139.255
0
LINE
8
BLACK
6
CONTINUOUS
10
125.391
20
-139.255
11
125.296
21
-139.065
0
LINE
8
BLACK
6
CONTINUOUS
10
125.296
20
-139.065
11
125.296
21
-137.35
0
LINE
8
BLACK
6
CONTINUOUS
10
126.629
20
-139.35
11
126.439
21
-139.255
0
LINE
8
BLACK
6
CONTINUOUS
10
126.439
20
-139.255
11
126.343
21
-139.065
0
LINE
8
BLACK
6
CONTINUOUS
10
126.343
20
-139.065
11
126.343
21
-137.35
0
LINE
8
BLACK
6
CONTINUOUS
10
128.915
20
-139.35
11
128.915
21
-137.35
0
LINE
8
BLACK
6
CONTINUOUS
10
128.915
20
-137.35
11
129.581
21
-138.779
0
LINE
8
BLACK
6
CONTINUOUS
10
129.581
20
-138.779
11
130.248
21
-137.35
0
LINE
8
BLACK
6
CONTINUOUS
10
130.248
20
-137.35
11
130.248
21
-139.35
0
LINE
8
BLACK
6
CONTINUOUS
10
132.058
20
-139.35
11
132.058
21
-138.303
0
LINE
8
BLACK
6
CONTINUOUS
10
132.058
20
-138.303
11
131.962
21
-138.112
0
LINE
8
BLACK
6
CONTINUOUS
10
131.962
20
-138.112
11
131.772
21
-138.017
0
LINE
8
BLACK
6
CONTINUOUS
10
131.772
20
-138.017
11
131.391
21
-138.017
0
LINE
8
BLACK
6
CONTINUOUS
10
131.391
20
-138.017
11
131.201
21
-138.112
0
LINE
8
BLACK
6
CONTINUOUS
10
132.058
20
-139.255
11
131.867
21
-139.35
0
LINE
8
BLACK
6
CONTINUOUS
10
131.867
20
-139.35
11
131.391
21
-139.35
0
LINE
8
BLACK
6
CONTINUOUS
10
131.391
20
-139.35
11
131.201
21
-139.255
0
LINE
8
BLACK
6
CONTINUOUS
10
131.201
20
-139.255
11
131.105
21
-139.065
0
LINE
8
BLACK
6
CONTINUOUS
10
131.105
20
-139.065
11
131.105
21
-138.874
0
LINE
8
BLACK
6
CONTINUOUS
10
131.105
20
-138.874
11
131.201
21
-138.684
0
LINE
8
BLACK
6
CONTINUOUS
10
131.201
20
-138.684
11
131.391
21
-138.588
0
LINE
8
BLACK
6
CONTINUOUS
10
131.391
20
-138.588
11
131.867
21
-138.588
0
LINE
8
BLACK
6
CONTINUOUS
10
131.867
20
-138.588
11
132.058
21
-138.493
0
LINE
8
BLACK
6
CONTINUOUS
10
133.01
20
-138.017
11
133.01
21
-140.017
0
LINE
8
BLACK
6
CONTINUOUS
10
133.01
20
-138.112
11
133.201
21
-138.017
0
LINE
8
BLACK
6
CONTINUOUS
10
133.201
20
-138.017
11
133.581
21
-138.017
0
LINE
8
BLACK
6
CONTINUOUS
10
133.581
20
-138.017
11
133.772
21
-138.112
0
LINE
8
BLACK
6
CONTINUOUS
10
133.772
20
-138.112
11
133.867
21
-138.208
0
LINE
8
BLACK
6
CONTINUOUS
10
133.867
20
-138.208
11
133.962
21
-138.398
0
LINE
8
BLACK
6
CONTINUOUS
10
133.962
20
-138.398
11
133.962
21
-138.969
0
LINE
8
BLACK
6
CONTINUOUS
10
133.962
20
-138.969
11
133.867
21
-139.16
0
LINE
8
BLACK
6
CONTINUOUS
10
133.867
20
-139.16
11
133.772
21
-139.255
0
LINE
8
BLACK
6
CONTINUOUS
10
133.772
20
-139.255
11
133.581
21
-139.35
0
LINE
8
BLACK
6
CONTINUOUS
10
133.581
20
-139.35
11
133.201
21
-139.35
0
LINE
8
BLACK
6
CONTINUOUS
10
133.201
20
-139.35
11
133.01
21
-139.255
0
LINE
8
BLACK
6
CONTINUOUS
10
134.82
20
-139.16
11
134.915
21
-139.255
0
LINE
8
BLACK
6
CONTINUOUS
10
134.915
20
-139.255
11
134.82
21
-139.35
0
LINE
8
BLACK
6
CONTINUOUS
10
134.82
20
-139.35
11
134.724
21
-139.255
0
LINE
8
BLACK
6
CONTINUOUS
10
134.724
20
-139.255
11
134.82
21
-139.16
0
LINE
8
BLACK
6
CONTINUOUS
10
134.82
20
-139.16
11
134.82
21
-139.35
0
LINE
8
BLACK
6
CONTINUOUS
10
134.82
20
-138.112
11
134.915
21
-138.208
0
LINE
8
BLACK
6
CONTINUOUS
10
134.915
20
-138.208
11
134.82
21
-138.303
0
LINE
8
BLACK
6
CONTINUOUS
10
134.82
20
-138.303
11
134.724
21
-138.208
0
LINE
8
BLACK
6
CONTINUOUS
10
134.724
20
-138.208
11
134.82
21
-138.112
0
LINE
8
BLACK
6
CONTINUOUS
10
134.82
20
-138.112
11
134.82
21
-138.303
  0
ENDSEC
  0
EOF
