%TF.GenerationSoftware,KiCad,Pcbnew,6.0.9-1.fc36*%
%TF.CreationDate,2022-12-06T19:06:56+01:00*%
%TF.ProjectId,iBolit_daughter,69426f6c-6974-45f6-9461-756768746572,rev?*%
%TF.SameCoordinates,Original*%
%TF.FileFunction,Copper,L2,Bot*%
%TF.FilePolarity,Positive*%
%FSLAX46Y46*%
G04 Gerber Fmt 4.6, Leading zero omitted, Abs format (unit mm)*
G04 Created by KiCad (PCBNEW 6.0.9-1.fc36) date 2022-12-06 19:06:56*
%MOMM*%
%LPD*%
G01*
G04 APERTURE LIST*
%TA.AperFunction,ComponentPad*%
%ADD10C,1.600000*%
%TD*%
%TA.AperFunction,ComponentPad*%
%ADD11O,1.600000X1.600000*%
%TD*%
%TA.AperFunction,ComponentPad*%
%ADD12C,1.308000*%
%TD*%
%TA.AperFunction,ComponentPad*%
%ADD13R,1.308000X1.308000*%
%TD*%
%TA.AperFunction,ComponentPad*%
%ADD14C,1.422400*%
%TD*%
%TA.AperFunction,ComponentPad*%
%ADD15O,2.844800X1.422400*%
%TD*%
%TA.AperFunction,Conductor*%
%ADD16C,0.762000*%
%TD*%
%TA.AperFunction,Conductor*%
%ADD17C,1.016000*%
%TD*%
%TA.AperFunction,Conductor*%
%ADD18C,0.700000*%
%TD*%
G04 APERTURE END LIST*
D10*
%TO.P,C9,1*%
%TO.N,Net-(JP5-Pad1)*%
X164084000Y-122381000D03*
%TO.P,C9,2*%
%TO.N,/GND1*%
X164084000Y-127381000D03*
%TD*%
%TO.P,C8,1*%
%TO.N,Net-(DC2-Pad2)*%
X164084000Y-115316000D03*
%TO.P,C8,2*%
%TO.N,/GND2*%
X164084000Y-120316000D03*
%TD*%
%TO.P,C6,1*%
%TO.N,/GND1*%
X164084000Y-129493000D03*
%TO.P,C6,2*%
%TO.N,/-12VIN*%
X164084000Y-134493000D03*
%TD*%
%TO.P,C7,1*%
%TO.N,/GND2*%
X164084000Y-108157000D03*
%TO.P,C7,2*%
%TO.N,/-12VOUT*%
X164084000Y-113157000D03*
%TD*%
%TO.P,R1,1,1*%
%TO.N,/+5VIN*%
X123230000Y-115150000D03*
D11*
%TO.P,R1,2,2*%
%TO.N,Net-(JP5-Pad3)*%
X130850000Y-115150000D03*
%TD*%
D12*
%TO.P,DC2,4,+VOUT*%
%TO.N,/GND2*%
X167741600Y-111353600D03*
%TO.P,DC2,3,-VOUT*%
%TO.N,/-12VOUT*%
X167741600Y-113893600D03*
%TO.P,DC2,2,+VIN*%
%TO.N,Net-(DC2-Pad2)*%
X167741600Y-116433600D03*
%TO.P,DC2,1,-VIN*%
%TO.N,/GND2*%
X167741600Y-118973600D03*
%TD*%
%TO.P,DC1,4,+VOUT*%
%TO.N,Net-(JP5-Pad1)*%
X167741600Y-124688600D03*
%TO.P,DC1,3,-VOUT*%
%TO.N,/GND1*%
X167741600Y-127228600D03*
%TO.P,DC1,2,+VIN*%
X167741600Y-129768600D03*
%TO.P,DC1,1,-VIN*%
%TO.N,/-12VIN*%
X167741600Y-132308600D03*
%TD*%
D13*
%TO.P,X3,GNDIN,GNDI*%
%TO.N,/GND1*%
X123736100Y-121513600D03*
%TO.P,X3,GNDOUT,GNDO*%
%TO.N,/GND2*%
X156121100Y-121513600D03*
%TO.P,X3,NC1,NC1*%
%TO.N,Net-(JP5-Pad3)*%
X123736100Y-124053600D03*
%TO.P,X3,NC2,NC2*%
%TO.N,Net-(JP5-Pad2)*%
X123736100Y-126593600D03*
%TO.P,X3,NC3,NC3*%
%TO.N,Net-(JP8-Pad3)*%
X156121100Y-126593600D03*
%TO.P,X3,NC4,NC4*%
%TO.N,Net-(JP8-Pad2)*%
X156121100Y-124053600D03*
%TO.P,X3,VIN,VIN*%
%TO.N,Net-(JP5-Pad1)*%
X123736100Y-129133600D03*
%TO.P,X3,VOUT,VOUT*%
%TO.N,Net-(DC2-Pad2)*%
X156121100Y-129133600D03*
%TD*%
%TO.P,X2,GNDIN,GNDI*%
%TO.N,/GND1*%
X123736100Y-101193600D03*
%TO.P,X2,GNDOUT,GNDO*%
%TO.N,/GND2*%
X156121100Y-101193600D03*
%TO.P,X2,NC1,NC1*%
%TO.N,Net-(JP4-Pad3)*%
X123736100Y-103733600D03*
%TO.P,X2,NC2,NC2*%
%TO.N,Net-(JP4-Pad2)*%
X123736100Y-106273600D03*
%TO.P,X2,NC3,NC3*%
%TO.N,Net-(JP7-Pad3)*%
X156121100Y-106273600D03*
%TO.P,X2,NC4,NC4*%
%TO.N,Net-(JP7-Pad2)*%
X156121100Y-103733600D03*
%TO.P,X2,VIN,VIN*%
%TO.N,/+12VIN*%
X123736100Y-108813600D03*
%TO.P,X2,VOUT,VOUT*%
%TO.N,/+12VOUT*%
X156121100Y-108813600D03*
%TD*%
%TO.P,X1,GNDIN,GNDI*%
%TO.N,/GND1*%
X123736100Y-80873600D03*
%TO.P,X1,GNDOUT,GNDO*%
%TO.N,/GND2*%
X156121100Y-80873600D03*
%TO.P,X1,NC1,NC1*%
%TO.N,Net-(JP3-Pad3)*%
X123736100Y-83413600D03*
%TO.P,X1,NC2,NC2*%
%TO.N,Net-(JP3-Pad2)*%
X123736100Y-85953600D03*
%TO.P,X1,NC3,NC3*%
%TO.N,Net-(JP6-Pad3)*%
X156121100Y-85953600D03*
%TO.P,X1,NC4,NC4*%
%TO.N,Net-(JP6-Pad2)*%
X156121100Y-83413600D03*
%TO.P,X1,VIN,VIN*%
%TO.N,/+5VIN*%
X123736100Y-88493600D03*
%TO.P,X1,VOUT,VOUT*%
%TO.N,/+5VOUT*%
X156121100Y-88493600D03*
%TD*%
D14*
%TO.P,JP2,1,1*%
%TO.N,/-12VIN*%
X174536100Y-106273600D03*
%TO.P,JP2,2,2*%
%TO.N,/-12VOUT*%
X171996100Y-106273600D03*
%TO.P,JP2,3,3*%
%TO.N,/GND1*%
X174536100Y-103733600D03*
%TO.P,JP2,4,4*%
%TO.N,/GND2*%
X171996100Y-103733600D03*
%TO.P,JP2,5,5*%
%TO.N,/+12VIN*%
X174536100Y-101193600D03*
%TO.P,JP2,6,6*%
%TO.N,/+12VOUT*%
X171996100Y-101193600D03*
%TO.P,JP2,7,7*%
%TO.N,/GND1*%
X174536100Y-98653600D03*
%TO.P,JP2,8,8*%
%TO.N,/GND2*%
X171996100Y-98653600D03*
%TO.P,JP2,9,9*%
%TO.N,/+5VIN*%
X174536100Y-96113600D03*
%TO.P,JP2,10,10*%
%TO.N,/+5VOUT*%
X171996100Y-96113600D03*
%TD*%
D15*
%TO.P,JP3,4,4*%
%TO.N,/GND1*%
X123736100Y-80873600D03*
%TO.P,JP3,3,3*%
%TO.N,Net-(JP3-Pad3)*%
X123736100Y-83413600D03*
%TO.P,JP3,2,2*%
%TO.N,Net-(JP3-Pad2)*%
X123736100Y-85953600D03*
%TO.P,JP3,1,1*%
%TO.N,/+5VIN*%
X123736100Y-88493600D03*
%TD*%
%TO.P,JP4,4,4*%
%TO.N,/GND1*%
X123736100Y-101193600D03*
%TO.P,JP4,3,3*%
%TO.N,Net-(JP4-Pad3)*%
X123736100Y-103733600D03*
%TO.P,JP4,2,2*%
%TO.N,Net-(JP4-Pad2)*%
X123736100Y-106273600D03*
%TO.P,JP4,1,1*%
%TO.N,/+12VIN*%
X123736100Y-108813600D03*
%TD*%
%TO.P,JP5,4,4*%
%TO.N,/GND1*%
X123736100Y-121513600D03*
%TO.P,JP5,3,3*%
%TO.N,Net-(JP5-Pad3)*%
X123736100Y-124053600D03*
%TO.P,JP5,2,2*%
%TO.N,Net-(JP5-Pad2)*%
X123736100Y-126593600D03*
%TO.P,JP5,1,1*%
%TO.N,Net-(JP5-Pad1)*%
X123736100Y-129133600D03*
%TD*%
%TO.P,JP6,4,4*%
%TO.N,/+5VOUT*%
X156121100Y-88493600D03*
%TO.P,JP6,3,3*%
%TO.N,Net-(JP6-Pad3)*%
X156121100Y-85953600D03*
%TO.P,JP6,2,2*%
%TO.N,Net-(JP6-Pad2)*%
X156121100Y-83413600D03*
%TO.P,JP6,1,1*%
%TO.N,/GND2*%
X156121100Y-80873600D03*
%TD*%
%TO.P,JP7,4,4*%
%TO.N,/+12VOUT*%
X156121100Y-108813600D03*
%TO.P,JP7,3,3*%
%TO.N,Net-(JP7-Pad3)*%
X156121100Y-106273600D03*
%TO.P,JP7,2,2*%
%TO.N,Net-(JP7-Pad2)*%
X156121100Y-103733600D03*
%TO.P,JP7,1,1*%
%TO.N,/GND2*%
X156121100Y-101193600D03*
%TD*%
%TO.P,JP8,4,4*%
%TO.N,Net-(DC2-Pad2)*%
X156121100Y-129133600D03*
%TO.P,JP8,3,3*%
%TO.N,Net-(JP8-Pad3)*%
X156121100Y-126593600D03*
%TO.P,JP8,2,2*%
%TO.N,Net-(JP8-Pad2)*%
X156121100Y-124053600D03*
%TO.P,JP8,1,1*%
%TO.N,/GND2*%
X156121100Y-121513600D03*
%TD*%
D16*
%TO.N,Net-(JP5-Pad1)*%
X160020000Y-126619000D02*
X164258000Y-122381000D01*
X167741600Y-124663200D02*
X167741600Y-124688600D01*
X165459400Y-122381000D02*
X167741600Y-124663200D01*
X164258000Y-122381000D02*
X165459400Y-122381000D01*
X160020000Y-130314700D02*
X160020000Y-126619000D01*
%TO.N,/GND1*%
X164084000Y-127381000D02*
X167589200Y-127381000D01*
%TO.N,Net-(JP5-Pad1)*%
X157391100Y-132943600D02*
X160020000Y-130314700D01*
%TO.N,/GND1*%
X167466000Y-129493000D02*
X167741600Y-129768600D01*
%TO.N,Net-(JP5-Pad1)*%
X128149350Y-132943600D02*
X157391100Y-132943600D01*
X124339350Y-129133600D02*
X128149350Y-132943600D01*
X123736100Y-129133600D02*
X124339350Y-129133600D01*
%TO.N,/GND1*%
X167589200Y-127381000D02*
X167741600Y-127228600D01*
X167741600Y-127228600D02*
X169062400Y-127228600D01*
X169062400Y-127228600D02*
X176441100Y-119849900D01*
X176441100Y-119849900D02*
X176441100Y-105638600D01*
X176441100Y-105638600D02*
X174536100Y-103733600D01*
X164084000Y-129493000D02*
X167466000Y-129493000D01*
%TO.N,/-12VIN*%
X167741600Y-132334000D02*
X167741600Y-132308600D01*
X164084000Y-134493000D02*
X165582600Y-134493000D01*
X165582600Y-134493000D02*
X167741600Y-132334000D01*
%TO.N,/+12VOUT*%
X171996100Y-101193600D02*
X166141400Y-101193600D01*
X166141400Y-101193600D02*
X158521400Y-108813600D01*
X158521400Y-108813600D02*
X156121100Y-108813600D01*
%TO.N,Net-(JP5-Pad3)*%
X130850000Y-115150000D02*
X130850000Y-118070000D01*
X130850000Y-118070000D02*
X124968000Y-123952000D01*
X124968000Y-123952000D02*
X123837700Y-123952000D01*
X123837700Y-123952000D02*
X123736100Y-124053600D01*
%TO.N,/GND2*%
X156121100Y-101193600D02*
X156019500Y-101092000D01*
X156019500Y-101092000D02*
X152400000Y-101092000D01*
X152400000Y-101092000D02*
X152311100Y-101003100D01*
X152311100Y-101003100D02*
X152311100Y-98653600D01*
%TO.N,/GND1*%
X164084000Y-127381000D02*
X164084000Y-129493000D01*
%TO.N,/GND2*%
X167767000Y-111353600D02*
X167767000Y-111252000D01*
X167767000Y-111252000D02*
X164672000Y-108157000D01*
X164672000Y-108157000D02*
X164084000Y-108157000D01*
%TO.N,/-12VOUT*%
X164084000Y-113157000D02*
X167030400Y-113157000D01*
X167030400Y-113157000D02*
X167767000Y-113893600D01*
%TO.N,/GND2*%
X167767000Y-118973600D02*
X169456100Y-117284500D01*
X169456100Y-117284500D02*
X169456100Y-113042700D01*
X169456100Y-113042700D02*
X167767000Y-111353600D01*
%TO.N,Net-(DC2-Pad2)*%
X164084000Y-115316000D02*
X165201600Y-116433600D01*
X165201600Y-116433600D02*
X167767000Y-116433600D01*
%TO.N,/GND2*%
X156121100Y-121513600D02*
X158791100Y-121513600D01*
X158791100Y-121513600D02*
X159908700Y-120396000D01*
X165506400Y-118973600D02*
X167767000Y-118973600D01*
X159908700Y-120396000D02*
X164084000Y-120396000D01*
X164084000Y-120396000D02*
X165506400Y-118973600D01*
%TO.N,/+5VIN*%
X123736100Y-88493600D02*
X120561100Y-91668600D01*
X120561100Y-91668600D02*
X120561100Y-110718600D01*
X120561100Y-110718600D02*
X123230000Y-113387500D01*
X123230000Y-113387500D02*
X123230000Y-115150000D01*
D17*
%TO.N,/+5VOUT*%
X171996100Y-96113600D02*
X159931100Y-96113600D01*
X159931100Y-96113600D02*
X156121100Y-92303600D01*
X156121100Y-92303600D02*
X156121100Y-88493600D01*
D16*
%TO.N,/GND2*%
X152311100Y-98653600D02*
X152311100Y-82778600D01*
X152311100Y-82778600D02*
X154216100Y-80873600D01*
X154216100Y-80873600D02*
X156121100Y-80873600D01*
X156121100Y-121513600D02*
X154851100Y-121513600D01*
X154851100Y-121513600D02*
X152311100Y-118973600D01*
X152311100Y-118973600D02*
X152311100Y-98653600D01*
X171996100Y-98653600D02*
X173266100Y-99923600D01*
D18*
X173266100Y-99923600D02*
X173266100Y-102463600D01*
D16*
X173266100Y-102463600D02*
X171996100Y-103733600D01*
%TD*%
M02*
