M48
; DRILL file {KiCad 6.0.9-1.fc36} date mar 06 dic 2022 19:06:54
; FORMAT={-:-/ absolute / metric / decimal}
; #@! TF.CreationDate,2022-12-06T19:06:54+01:00
; #@! TF.GenerationSoftware,Kicad,Pcbnew,6.0.9-1.fc36
; #@! TF.FileFunction,Plated,1,2,PTH
FMAT,2
METRIC
; #@! TA.AperFunction,Plated,PTH,ComponentDrill
T1C0.800
; #@! TA.AperFunction,Plated,PTH,ComponentDrill
T2C0.914
%
G90
G05
T1
X123.23Y-115.15
X123.736Y-80.874
X123.736Y-83.414
X123.736Y-85.954
X123.736Y-88.494
X123.736Y-101.194
X123.736Y-103.734
X123.736Y-106.274
X123.736Y-108.814
X123.736Y-121.514
X123.736Y-124.054
X123.736Y-126.594
X123.736Y-129.134
X130.85Y-115.15
X156.121Y-80.874
X156.121Y-83.414
X156.121Y-85.954
X156.121Y-88.494
X156.121Y-101.194
X156.121Y-103.734
X156.121Y-106.274
X156.121Y-108.814
X156.121Y-121.514
X156.121Y-124.054
X156.121Y-126.594
X156.121Y-129.134
X164.084Y-108.157
X164.084Y-113.157
X164.084Y-115.316
X164.084Y-120.316
X164.084Y-122.381
X164.084Y-127.381
X164.084Y-129.493
X164.084Y-134.493
X167.742Y-111.354
X167.742Y-113.894
X167.742Y-116.434
X167.742Y-118.974
X167.742Y-124.689
X167.742Y-127.229
X167.742Y-129.769
X167.742Y-132.309
T2
X123.736Y-80.874
X123.736Y-83.414
X123.736Y-85.954
X123.736Y-88.494
X123.736Y-101.194
X123.736Y-103.734
X123.736Y-106.274
X123.736Y-108.814
X123.736Y-121.514
X123.736Y-124.054
X123.736Y-126.594
X123.736Y-129.134
X156.121Y-80.874
X156.121Y-83.414
X156.121Y-85.954
X156.121Y-88.494
X156.121Y-101.194
X156.121Y-103.734
X156.121Y-106.274
X156.121Y-108.814
X156.121Y-121.514
X156.121Y-124.054
X156.121Y-126.594
X156.121Y-129.134
X171.996Y-96.114
X171.996Y-98.654
X171.996Y-101.194
X171.996Y-103.734
X171.996Y-106.274
X174.536Y-96.114
X174.536Y-98.654
X174.536Y-101.194
X174.536Y-103.734
X174.536Y-106.274
T0
M30
