  0
SECTION
  2
HEADER
  9
$ANGBASE
  50
0.0
  9
$ANGDIR
  70
1
  9
$MEASUREMENT
  70
1
  0
ENDSEC
  0
SECTION
  2
TABLES
  0
TABLE
  2
LTYPE
  70
4
  0
LTYPE
  5
40F
  2
CONTINUOUS
  70
0
  3
Solid line
  72
65
  73
0
  40
0.0
  0
LTYPE
  5
410
  2
DASHDOT
 70
0
  3
Dash Dot ____ _ ____ _
 72
65
 73
4
 40
2.0
 49
1.25
 49
-0.25
 49
0.25
 49
-0.25
  0
LTYPE
  5
411
  2
DASHED
 70
0
  3
Dashed __ __ __ __ __
 72
65
 73
2
 40
0.75
 49
0.5
 49
-0.25
  0
LTYPE
  5
43B
  2
DOTTED
 70
0
  3
Dotted .  .  .  .
 72
65
 73
2
 40
0.2
 49
0.0
 49
-0.2
  0
ENDTAB
  0
TABLE
  2
STYLE
  70
4
  0
STYLE
  2
KICAD
  70
0
  40
0
  41
1
  42
1
  50
0
  71
0
  3
isocp.shx
  0
STYLE
  2
KICADB
  70
0
  40
0
  41
1
  42
1
  50
0
  71
0
  3
isocp.shx
  0
STYLE
  2
KICADI
  70
0
  40
0
  41
1
  42
1
  50
15
  71
0
  3
isocp.shx
  0
STYLE
  2
KICADBI
  70
0
  40
0
  41
1
  42
1
  50
15
  71
0
  3
isocp.shx
  0
ENDTAB
  0
TABLE
  2
LAYER
  70
1
  0
LAYER
  2
BLACK
  70
0
  62
7
  6
CONTINUOUS
  0
ENDTAB
  0
ENDSEC
  0
SECTION
  2
ENTITIES
0
LINE
8
BLACK
6
CONTINUOUS
10
177.711
20
-94.2086
11
162.471
21
-94.2086
0
LINE
8
BLACK
6
CONTINUOUS
10
161.836
20
-93.5736
11
161.836
21
-74.5236
0
LINE
8
BLACK
6
CONTINUOUS
10
161.201
20
-73.8886
11
119.291
21
-73.8886
0
LINE
8
BLACK
6
CONTINUOUS
10
118.656
20
-74.5236
11
118.656
21
-135.484
0
LINE
8
BLACK
6
CONTINUOUS
10
119.291
20
-136.119
11
177.711
21
-136.119
0
LINE
8
BLACK
6
CONTINUOUS
10
178.346
20
-94.8436
11
178.346
21
-135.484
0
LINE
8
BLACK
6
CONTINUOUS
10
178.346
20
-94.8436
11
177.711
21
-94.2086
0
LINE
8
BLACK
6
CONTINUOUS
10
161.836
20
-93.5736
11
162.471
21
-94.2086
0
LINE
8
BLACK
6
CONTINUOUS
10
161.201
20
-73.8886
11
161.836
21
-74.5236
0
LINE
8
BLACK
6
CONTINUOUS
10
118.656
20
-74.5236
11
119.291
21
-73.8886
0
LINE
8
BLACK
6
CONTINUOUS
10
118.656
20
-135.484
11
119.291
21
-136.119
0
LINE
8
BLACK
6
CONTINUOUS
10
177.711
20
-136.119
11
178.346
21
-135.484
0
LINE
8
BLACK
6
CONTINUOUS
10
122.83
20
-114.75
11
123.63
21
-115.55
0
LINE
8
BLACK
6
CONTINUOUS
10
123.63
20
-114.75
11
122.83
21
-115.55
0
LINE
8
BLACK
6
CONTINUOUS
10
123.336
20
-80.4736
11
124.136
21
-81.2736
0
LINE
8
BLACK
6
CONTINUOUS
10
124.136
20
-80.4736
11
123.336
21
-81.2736
0
LINE
8
BLACK
6
CONTINUOUS
10
123.336
20
-83.0136
11
124.136
21
-83.8136
0
LINE
8
BLACK
6
CONTINUOUS
10
124.136
20
-83.0136
11
123.336
21
-83.8136
0
LINE
8
BLACK
6
CONTINUOUS
10
123.336
20
-85.5536
11
124.136
21
-86.3536
0
LINE
8
BLACK
6
CONTINUOUS
10
124.136
20
-85.5536
11
123.336
21
-86.3536
0
LINE
8
BLACK
6
CONTINUOUS
10
123.336
20
-88.0936
11
124.136
21
-88.8936
0
LINE
8
BLACK
6
CONTINUOUS
10
124.136
20
-88.0936
11
123.336
21
-88.8936
0
LINE
8
BLACK
6
CONTINUOUS
10
123.336
20
-100.794
11
124.136
21
-101.594
0
LINE
8
BLACK
6
CONTINUOUS
10
124.136
20
-100.794
11
123.336
21
-101.594
0
LINE
8
BLACK
6
CONTINUOUS
10
123.336
20
-103.334
11
124.136
21
-104.134
0
LINE
8
BLACK
6
CONTINUOUS
10
124.136
20
-103.334
11
123.336
21
-104.134
0
LINE
8
BLACK
6
CONTINUOUS
10
123.336
20
-105.874
11
124.136
21
-106.674
0
LINE
8
BLACK
6
CONTINUOUS
10
124.136
20
-105.874
11
123.336
21
-106.674
0
LINE
8
BLACK
6
CONTINUOUS
10
123.336
20
-108.414
11
124.136
21
-109.214
0
LINE
8
BLACK
6
CONTINUOUS
10
124.136
20
-108.414
11
123.336
21
-109.214
0
LINE
8
BLACK
6
CONTINUOUS
10
123.336
20
-121.114
11
124.136
21
-121.914
0
LINE
8
BLACK
6
CONTINUOUS
10
124.136
20
-121.114
11
123.336
21
-121.914
0
LINE
8
BLACK
6
CONTINUOUS
10
123.336
20
-123.654
11
124.136
21
-124.454
0
LINE
8
BLACK
6
CONTINUOUS
10
124.136
20
-123.654
11
123.336
21
-124.454
0
LINE
8
BLACK
6
CONTINUOUS
10
123.336
20
-126.194
11
124.136
21
-126.994
0
LINE
8
BLACK
6
CONTINUOUS
10
124.136
20
-126.194
11
123.336
21
-126.994
0
LINE
8
BLACK
6
CONTINUOUS
10
123.336
20
-128.734
11
124.136
21
-129.534
0
LINE
8
BLACK
6
CONTINUOUS
10
124.136
20
-128.734
11
123.336
21
-129.534
0
LINE
8
BLACK
6
CONTINUOUS
10
130.45
20
-114.75
11
131.25
21
-115.55
0
LINE
8
BLACK
6
CONTINUOUS
10
131.25
20
-114.75
11
130.45
21
-115.55
0
LINE
8
BLACK
6
CONTINUOUS
10
155.721
20
-80.4736
11
156.521
21
-81.2736
0
LINE
8
BLACK
6
CONTINUOUS
10
156.521
20
-80.4736
11
155.721
21
-81.2736
0
LINE
8
BLACK
6
CONTINUOUS
10
155.721
20
-83.0136
11
156.521
21
-83.8136
0
LINE
8
BLACK
6
CONTINUOUS
10
156.521
20
-83.0136
11
155.721
21
-83.8136
0
LINE
8
BLACK
6
CONTINUOUS
10
155.721
20
-85.5536
11
156.521
21
-86.3536
0
LINE
8
BLACK
6
CONTINUOUS
10
156.521
20
-85.5536
11
155.721
21
-86.3536
0
LINE
8
BLACK
6
CONTINUOUS
10
155.721
20
-88.0936
11
156.521
21
-88.8936
0
LINE
8
BLACK
6
CONTINUOUS
10
156.521
20
-88.0936
11
155.721
21
-88.8936
0
LINE
8
BLACK
6
CONTINUOUS
10
155.721
20
-100.794
11
156.521
21
-101.594
0
LINE
8
BLACK
6
CONTINUOUS
10
156.521
20
-100.794
11
155.721
21
-101.594
0
LINE
8
BLACK
6
CONTINUOUS
10
155.721
20
-103.334
11
156.521
21
-104.134
0
LINE
8
BLACK
6
CONTINUOUS
10
156.521
20
-103.334
11
155.721
21
-104.134
0
LINE
8
BLACK
6
CONTINUOUS
10
155.721
20
-105.874
11
156.521
21
-106.674
0
LINE
8
BLACK
6
CONTINUOUS
10
156.521
20
-105.874
11
155.721
21
-106.674
0
LINE
8
BLACK
6
CONTINUOUS
10
155.721
20
-108.414
11
156.521
21
-109.214
0
LINE
8
BLACK
6
CONTINUOUS
10
156.521
20
-108.414
11
155.721
21
-109.214
0
LINE
8
BLACK
6
CONTINUOUS
10
155.721
20
-121.114
11
156.521
21
-121.914
0
LINE
8
BLACK
6
CONTINUOUS
10
156.521
20
-121.114
11
155.721
21
-121.914
0
LINE
8
BLACK
6
CONTINUOUS
10
155.721
20
-123.654
11
156.521
21
-124.454
0
LINE
8
BLACK
6
CONTINUOUS
10
156.521
20
-123.654
11
155.721
21
-124.454
0
LINE
8
BLACK
6
CONTINUOUS
10
155.721
20
-126.194
11
156.521
21
-126.994
0
LINE
8
BLACK
6
CONTINUOUS
10
156.521
20
-126.194
11
155.721
21
-126.994
0
LINE
8
BLACK
6
CONTINUOUS
10
155.721
20
-128.734
11
156.521
21
-129.534
0
LINE
8
BLACK
6
CONTINUOUS
10
156.521
20
-128.734
11
155.721
21
-129.534
0
LINE
8
BLACK
6
CONTINUOUS
10
163.684
20
-107.757
11
164.484
21
-108.557
0
LINE
8
BLACK
6
CONTINUOUS
10
164.484
20
-107.757
11
163.684
21
-108.557
0
LINE
8
BLACK
6
CONTINUOUS
10
163.684
20
-112.757
11
164.484
21
-113.557
0
LINE
8
BLACK
6
CONTINUOUS
10
164.484
20
-112.757
11
163.684
21
-113.557
0
LINE
8
BLACK
6
CONTINUOUS
10
163.684
20
-114.916
11
164.484
21
-115.716
0
LINE
8
BLACK
6
CONTINUOUS
10
164.484
20
-114.916
11
163.684
21
-115.716
0
LINE
8
BLACK
6
CONTINUOUS
10
163.684
20
-119.916
11
164.484
21
-120.716
0
LINE
8
BLACK
6
CONTINUOUS
10
164.484
20
-119.916
11
163.684
21
-120.716
0
LINE
8
BLACK
6
CONTINUOUS
10
163.684
20
-121.981
11
164.484
21
-122.781
0
LINE
8
BLACK
6
CONTINUOUS
10
164.484
20
-121.981
11
163.684
21
-122.781
0
LINE
8
BLACK
6
CONTINUOUS
10
163.684
20
-126.981
11
164.484
21
-127.781
0
LINE
8
BLACK
6
CONTINUOUS
10
164.484
20
-126.981
11
163.684
21
-127.781
0
LINE
8
BLACK
6
CONTINUOUS
10
163.684
20
-129.093
11
164.484
21
-129.893
0
LINE
8
BLACK
6
CONTINUOUS
10
164.484
20
-129.093
11
163.684
21
-129.893
0
LINE
8
BLACK
6
CONTINUOUS
10
163.684
20
-134.093
11
164.484
21
-134.893
0
LINE
8
BLACK
6
CONTINUOUS
10
164.484
20
-134.093
11
163.684
21
-134.893
0
LINE
8
BLACK
6
CONTINUOUS
10
167.342
20
-110.954
11
168.142
21
-111.754
0
LINE
8
BLACK
6
CONTINUOUS
10
168.142
20
-110.954
11
167.342
21
-111.754
0
LINE
8
BLACK
6
CONTINUOUS
10
167.342
20
-113.494
11
168.142
21
-114.294
0
LINE
8
BLACK
6
CONTINUOUS
10
168.142
20
-113.494
11
167.342
21
-114.294
0
LINE
8
BLACK
6
CONTINUOUS
10
167.342
20
-116.034
11
168.142
21
-116.834
0
LINE
8
BLACK
6
CONTINUOUS
10
168.142
20
-116.034
11
167.342
21
-116.834
0
LINE
8
BLACK
6
CONTINUOUS
10
167.342
20
-118.574
11
168.142
21
-119.374
0
LINE
8
BLACK
6
CONTINUOUS
10
168.142
20
-118.574
11
167.342
21
-119.374
0
LINE
8
BLACK
6
CONTINUOUS
10
167.342
20
-124.289
11
168.142
21
-125.089
0
LINE
8
BLACK
6
CONTINUOUS
10
168.142
20
-124.289
11
167.342
21
-125.089
0
LINE
8
BLACK
6
CONTINUOUS
10
167.342
20
-126.829
11
168.142
21
-127.629
0
LINE
8
BLACK
6
CONTINUOUS
10
168.142
20
-126.829
11
167.342
21
-127.629
0
LINE
8
BLACK
6
CONTINUOUS
10
167.342
20
-129.369
11
168.142
21
-130.169
0
LINE
8
BLACK
6
CONTINUOUS
10
168.142
20
-129.369
11
167.342
21
-130.169
0
LINE
8
BLACK
6
CONTINUOUS
10
167.342
20
-131.909
11
168.142
21
-132.709
0
LINE
8
BLACK
6
CONTINUOUS
10
168.142
20
-131.909
11
167.342
21
-132.709
0
CIRCLE
8
BLACK
10
123.736
20
-80.8736
40
0.4572
0
CIRCLE
8
BLACK
10
123.736
20
-83.4136
40
0.4572
0
CIRCLE
8
BLACK
10
123.736
20
-85.9536
40
0.4572
0
CIRCLE
8
BLACK
10
123.736
20
-88.4936
40
0.4572
0
CIRCLE
8
BLACK
10
123.736
20
-101.194
40
0.4572
0
CIRCLE
8
BLACK
10
123.736
20
-103.734
40
0.4572
0
CIRCLE
8
BLACK
10
123.736
20
-106.274
40
0.4572
0
CIRCLE
8
BLACK
10
123.736
20
-108.814
40
0.4572
0
CIRCLE
8
BLACK
10
123.736
20
-121.514
40
0.4572
0
CIRCLE
8
BLACK
10
123.736
20
-124.054
40
0.4572
0
CIRCLE
8
BLACK
10
123.736
20
-126.594
40
0.4572
0
CIRCLE
8
BLACK
10
123.736
20
-129.134
40
0.4572
0
CIRCLE
8
BLACK
10
156.121
20
-80.8736
40
0.4572
0
CIRCLE
8
BLACK
10
156.121
20
-83.4136
40
0.4572
0
CIRCLE
8
BLACK
10
156.121
20
-85.9536
40
0.4572
0
CIRCLE
8
BLACK
10
156.121
20
-88.4936
40
0.4572
0
CIRCLE
8
BLACK
10
156.121
20
-101.194
40
0.4572
0
CIRCLE
8
BLACK
10
156.121
20
-103.734
40
0.4572
0
CIRCLE
8
BLACK
10
156.121
20
-106.274
40
0.4572
0
CIRCLE
8
BLACK
10
156.121
20
-108.814
40
0.4572
0
CIRCLE
8
BLACK
10
156.121
20
-121.514
40
0.4572
0
CIRCLE
8
BLACK
10
156.121
20
-124.054
40
0.4572
0
CIRCLE
8
BLACK
10
156.121
20
-126.594
40
0.4572
0
CIRCLE
8
BLACK
10
156.121
20
-129.134
40
0.4572
0
CIRCLE
8
BLACK
10
171.996
20
-96.1136
40
0.4572
0
CIRCLE
8
BLACK
10
171.996
20
-98.6536
40
0.4572
0
CIRCLE
8
BLACK
10
171.996
20
-101.194
40
0.4572
0
CIRCLE
8
BLACK
10
171.996
20
-103.734
40
0.4572
0
CIRCLE
8
BLACK
10
171.996
20
-106.274
40
0.4572
0
CIRCLE
8
BLACK
10
174.536
20
-96.1136
40
0.4572
0
CIRCLE
8
BLACK
10
174.536
20
-98.6536
40
0.4572
0
CIRCLE
8
BLACK
10
174.536
20
-101.194
40
0.4572
0
CIRCLE
8
BLACK
10
174.536
20
-103.734
40
0.4572
0
CIRCLE
8
BLACK
10
174.536
20
-106.274
40
0.4572
0
LINE
8
BLACK
6
CONTINUOUS
10
121.105
20
-139.35
11
121.105
21
-137.35
0
LINE
8
BLACK
6
CONTINUOUS
10
121.105
20
-137.35
11
121.581
21
-137.35
0
LINE
8
BLACK
6
CONTINUOUS
10
121.581
20
-137.35
11
121.867
21
-137.446
0
LINE
8
BLACK
6
CONTINUOUS
10
121.867
20
-137.446
11
122.058
21
-137.636
0
LINE
8
BLACK
6
CONTINUOUS
10
122.058
20
-137.636
11
122.153
21
-137.827
0
LINE
8
BLACK
6
CONTINUOUS
10
122.153
20
-137.827
11
122.248
21
-138.208
0
LINE
8
BLACK
6
CONTINUOUS
10
122.248
20
-138.208
11
122.248
21
-138.493
0
LINE
8
BLACK
6
CONTINUOUS
10
122.248
20
-138.493
11
122.153
21
-138.874
0
LINE
8
BLACK
6
CONTINUOUS
10
122.153
20
-138.874
11
122.058
21
-139.065
0
LINE
8
BLACK
6
CONTINUOUS
10
122.058
20
-139.065
11
121.867
21
-139.255
0
LINE
8
BLACK
6
CONTINUOUS
10
121.867
20
-139.255
11
121.581
21
-139.35
0
LINE
8
BLACK
6
CONTINUOUS
10
121.581
20
-139.35
11
121.105
21
-139.35
0
LINE
8
BLACK
6
CONTINUOUS
10
123.105
20
-139.35
11
123.105
21
-138.017
0
LINE
8
BLACK
6
CONTINUOUS
10
123.105
20
-138.398
11
123.201
21
-138.208
0
LINE
8
BLACK
6
CONTINUOUS
10
123.201
20
-138.208
11
123.296
21
-138.112
0
LINE
8
BLACK
6
CONTINUOUS
10
123.296
20
-138.112
11
123.486
21
-138.017
0
LINE
8
BLACK
6
CONTINUOUS
10
123.486
20
-138.017
11
123.677
21
-138.017
0
LINE
8
BLACK
6
CONTINUOUS
10
124.343
20
-139.35
11
124.343
21
-138.017
0
LINE
8
BLACK
6
CONTINUOUS
10
124.343
20
-137.35
11
124.248
21
-137.446
0
LINE
8
BLACK
6
CONTINUOUS
10
124.248
20
-137.446
11
124.343
21
-137.541
0
LINE
8
BLACK
6
CONTINUOUS
10
124.343
20
-137.541
11
124.439
21
-137.446
0
LINE
8
BLACK
6
CONTINUOUS
10
124.439
20
-137.446
11
124.343
21
-137.35
0
LINE
8
BLACK
6
CONTINUOUS
10
124.343
20
-137.35
11
124.343
21
-137.541
0
LINE
8
BLACK
6
CONTINUOUS
10
125.581
20
-139.35
11
125.391
21
-139.255
0
LINE
8
BLACK
6
CONTINUOUS
10
125.391
20
-139.255
11
125.296
21
-139.065
0
LINE
8
BLACK
6
CONTINUOUS
10
125.296
20
-139.065
11
125.296
21
-137.35
0
LINE
8
BLACK
6
CONTINUOUS
10
126.629
20
-139.35
11
126.439
21
-139.255
0
LINE
8
BLACK
6
CONTINUOUS
10
126.439
20
-139.255
11
126.343
21
-139.065
0
LINE
8
BLACK
6
CONTINUOUS
10
126.343
20
-139.065
11
126.343
21
-137.35
0
LINE
8
BLACK
6
CONTINUOUS
10
128.915
20
-139.35
11
128.915
21
-137.35
0
LINE
8
BLACK
6
CONTINUOUS
10
128.915
20
-137.35
11
129.581
21
-138.779
0
LINE
8
BLACK
6
CONTINUOUS
10
129.581
20
-138.779
11
130.248
21
-137.35
0
LINE
8
BLACK
6
CONTINUOUS
10
130.248
20
-137.35
11
130.248
21
-139.35
0
LINE
8
BLACK
6
CONTINUOUS
10
132.058
20
-139.35
11
132.058
21
-138.303
0
LINE
8
BLACK
6
CONTINUOUS
10
132.058
20
-138.303
11
131.962
21
-138.112
0
LINE
8
BLACK
6
CONTINUOUS
10
131.962
20
-138.112
11
131.772
21
-138.017
0
LINE
8
BLACK
6
CONTINUOUS
10
131.772
20
-138.017
11
131.391
21
-138.017
0
LINE
8
BLACK
6
CONTINUOUS
10
131.391
20
-138.017
11
131.201
21
-138.112
0
LINE
8
BLACK
6
CONTINUOUS
10
132.058
20
-139.255
11
131.867
21
-139.35
0
LINE
8
BLACK
6
CONTINUOUS
10
131.867
20
-139.35
11
131.391
21
-139.35
0
LINE
8
BLACK
6
CONTINUOUS
10
131.391
20
-139.35
11
131.201
21
-139.255
0
LINE
8
BLACK
6
CONTINUOUS
10
131.201
20
-139.255
11
131.105
21
-139.065
0
LINE
8
BLACK
6
CONTINUOUS
10
131.105
20
-139.065
11
131.105
21
-138.874
0
LINE
8
BLACK
6
CONTINUOUS
10
131.105
20
-138.874
11
131.201
21
-138.684
0
LINE
8
BLACK
6
CONTINUOUS
10
131.201
20
-138.684
11
131.391
21
-138.588
0
LINE
8
BLACK
6
CONTINUOUS
10
131.391
20
-138.588
11
131.867
21
-138.588
0
LINE
8
BLACK
6
CONTINUOUS
10
131.867
20
-138.588
11
132.058
21
-138.493
0
LINE
8
BLACK
6
CONTINUOUS
10
133.01
20
-138.017
11
133.01
21
-140.017
0
LINE
8
BLACK
6
CONTINUOUS
10
133.01
20
-138.112
11
133.201
21
-138.017
0
LINE
8
BLACK
6
CONTINUOUS
10
133.201
20
-138.017
11
133.581
21
-138.017
0
LINE
8
BLACK
6
CONTINUOUS
10
133.581
20
-138.017
11
133.772
21
-138.112
0
LINE
8
BLACK
6
CONTINUOUS
10
133.772
20
-138.112
11
133.867
21
-138.208
0
LINE
8
BLACK
6
CONTINUOUS
10
133.867
20
-138.208
11
133.962
21
-138.398
0
LINE
8
BLACK
6
CONTINUOUS
10
133.962
20
-138.398
11
133.962
21
-138.969
0
LINE
8
BLACK
6
CONTINUOUS
10
133.962
20
-138.969
11
133.867
21
-139.16
0
LINE
8
BLACK
6
CONTINUOUS
10
133.867
20
-139.16
11
133.772
21
-139.255
0
LINE
8
BLACK
6
CONTINUOUS
10
133.772
20
-139.255
11
133.581
21
-139.35
0
LINE
8
BLACK
6
CONTINUOUS
10
133.581
20
-139.35
11
133.201
21
-139.35
0
LINE
8
BLACK
6
CONTINUOUS
10
133.201
20
-139.35
11
133.01
21
-139.255
0
LINE
8
BLACK
6
CONTINUOUS
10
134.82
20
-139.16
11
134.915
21
-139.255
0
LINE
8
BLACK
6
CONTINUOUS
10
134.915
20
-139.255
11
134.82
21
-139.35
0
LINE
8
BLACK
6
CONTINUOUS
10
134.82
20
-139.35
11
134.724
21
-139.255
0
LINE
8
BLACK
6
CONTINUOUS
10
134.724
20
-139.255
11
134.82
21
-139.16
0
LINE
8
BLACK
6
CONTINUOUS
10
134.82
20
-139.16
11
134.82
21
-139.35
0
LINE
8
BLACK
6
CONTINUOUS
10
134.82
20
-138.112
11
134.915
21
-138.208
0
LINE
8
BLACK
6
CONTINUOUS
10
134.915
20
-138.208
11
134.82
21
-138.303
0
LINE
8
BLACK
6
CONTINUOUS
10
134.82
20
-138.303
11
134.724
21
-138.208
0
LINE
8
BLACK
6
CONTINUOUS
10
134.724
20
-138.208
11
134.82
21
-138.112
0
LINE
8
BLACK
6
CONTINUOUS
10
134.82
20
-138.112
11
134.82
21
-138.303
0
LINE
8
BLACK
6
CONTINUOUS
10
117.729
20
-142.246
11
118.529
21
-143.046
0
LINE
8
BLACK
6
CONTINUOUS
10
118.529
20
-142.246
11
117.729
21
-143.046
0
LINE
8
BLACK
6
CONTINUOUS
10
121.486
20
-141.55
11
121.677
21
-141.55
0
LINE
8
BLACK
6
CONTINUOUS
10
121.677
20
-141.55
11
121.867
21
-141.646
0
LINE
8
BLACK
6
CONTINUOUS
10
121.867
20
-141.646
11
121.962
21
-141.741
0
LINE
8
BLACK
6
CONTINUOUS
10
121.962
20
-141.741
11
122.058
21
-141.931
0
LINE
8
BLACK
6
CONTINUOUS
10
122.058
20
-141.931
11
122.153
21
-142.312
0
LINE
8
BLACK
6
CONTINUOUS
10
122.153
20
-142.312
11
122.153
21
-142.788
0
LINE
8
BLACK
6
CONTINUOUS
10
122.153
20
-142.788
11
122.058
21
-143.169
0
LINE
8
BLACK
6
CONTINUOUS
10
122.058
20
-143.169
11
121.962
21
-143.36
0
LINE
8
BLACK
6
CONTINUOUS
10
121.962
20
-143.36
11
121.867
21
-143.455
0
LINE
8
BLACK
6
CONTINUOUS
10
121.867
20
-143.455
11
121.677
21
-143.55
0
LINE
8
BLACK
6
CONTINUOUS
10
121.677
20
-143.55
11
121.486
21
-143.55
0
LINE
8
BLACK
6
CONTINUOUS
10
121.486
20
-143.55
11
121.296
21
-143.455
0
LINE
8
BLACK
6
CONTINUOUS
10
121.296
20
-143.455
11
121.201
21
-143.36
0
LINE
8
BLACK
6
CONTINUOUS
10
121.201
20
-143.36
11
121.105
21
-143.169
0
LINE
8
BLACK
6
CONTINUOUS
10
121.105
20
-143.169
11
121.01
21
-142.788
0
LINE
8
BLACK
6
CONTINUOUS
10
121.01
20
-142.788
11
121.01
21
-142.312
0
LINE
8
BLACK
6
CONTINUOUS
10
121.01
20
-142.312
11
121.105
21
-141.931
0
LINE
8
BLACK
6
CONTINUOUS
10
121.105
20
-141.931
11
121.201
21
-141.741
0
LINE
8
BLACK
6
CONTINUOUS
10
121.201
20
-141.741
11
121.296
21
-141.646
0
LINE
8
BLACK
6
CONTINUOUS
10
121.296
20
-141.646
11
121.486
21
-141.55
0
LINE
8
BLACK
6
CONTINUOUS
10
123.01
20
-143.36
11
123.105
21
-143.455
0
LINE
8
BLACK
6
CONTINUOUS
10
123.105
20
-143.455
11
123.01
21
-143.55
0
LINE
8
BLACK
6
CONTINUOUS
10
123.01
20
-143.55
11
122.915
21
-143.455
0
LINE
8
BLACK
6
CONTINUOUS
10
122.915
20
-143.455
11
123.01
21
-143.36
0
LINE
8
BLACK
6
CONTINUOUS
10
123.01
20
-143.36
11
123.01
21
-143.55
0
LINE
8
BLACK
6
CONTINUOUS
10
124.248
20
-142.408
11
124.058
21
-142.312
0
LINE
8
BLACK
6
CONTINUOUS
10
124.058
20
-142.312
11
123.962
21
-142.217
0
LINE
8
BLACK
6
CONTINUOUS
10
123.962
20
-142.217
11
123.867
21
-142.027
0
LINE
8
BLACK
6
CONTINUOUS
10
123.867
20
-142.027
11
123.867
21
-141.931
0
LINE
8
BLACK
6
CONTINUOUS
10
123.867
20
-141.931
11
123.962
21
-141.741
0
LINE
8
BLACK
6
CONTINUOUS
10
123.962
20
-141.741
11
124.058
21
-141.646
0
LINE
8
BLACK
6
CONTINUOUS
10
124.058
20
-141.646
11
124.248
21
-141.55
0
LINE
8
BLACK
6
CONTINUOUS
10
124.248
20
-141.55
11
124.629
21
-141.55
0
LINE
8
BLACK
6
CONTINUOUS
10
124.629
20
-141.55
11
124.82
21
-141.646
0
LINE
8
BLACK
6
CONTINUOUS
10
124.82
20
-141.646
11
124.915
21
-141.741
0
LINE
8
BLACK
6
CONTINUOUS
10
124.915
20
-141.741
11
125.01
21
-141.931
0
LINE
8
BLACK
6
CONTINUOUS
10
125.01
20
-141.931
11
125.01
21
-142.027
0
LINE
8
BLACK
6
CONTINUOUS
10
125.01
20
-142.027
11
124.915
21
-142.217
0
LINE
8
BLACK
6
CONTINUOUS
10
124.915
20
-142.217
11
124.82
21
-142.312
0
LINE
8
BLACK
6
CONTINUOUS
10
124.82
20
-142.312
11
124.629
21
-142.408
0
LINE
8
BLACK
6
CONTINUOUS
10
124.629
20
-142.408
11
124.248
21
-142.408
0
LINE
8
BLACK
6
CONTINUOUS
10
124.248
20
-142.408
11
124.058
21
-142.503
0
LINE
8
BLACK
6
CONTINUOUS
10
124.058
20
-142.503
11
123.962
21
-142.598
0
LINE
8
BLACK
6
CONTINUOUS
10
123.962
20
-142.598
11
123.867
21
-142.788
0
LINE
8
BLACK
6
CONTINUOUS
10
123.867
20
-142.788
11
123.867
21
-143.169
0
LINE
8
BLACK
6
CONTINUOUS
10
123.867
20
-143.169
11
123.962
21
-143.36
0
LINE
8
BLACK
6
CONTINUOUS
10
123.962
20
-143.36
11
124.058
21
-143.455
0
LINE
8
BLACK
6
CONTINUOUS
10
124.058
20
-143.455
11
124.248
21
-143.55
0
LINE
8
BLACK
6
CONTINUOUS
10
124.248
20
-143.55
11
124.629
21
-143.55
0
LINE
8
BLACK
6
CONTINUOUS
10
124.629
20
-143.55
11
124.82
21
-143.455
0
LINE
8
BLACK
6
CONTINUOUS
10
124.82
20
-143.455
11
124.915
21
-143.36
0
LINE
8
BLACK
6
CONTINUOUS
10
124.915
20
-143.36
11
125.01
21
-143.169
0
LINE
8
BLACK
6
CONTINUOUS
10
125.01
20
-143.169
11
125.01
21
-142.788
0
LINE
8
BLACK
6
CONTINUOUS
10
125.01
20
-142.788
11
124.915
21
-142.598
0
LINE
8
BLACK
6
CONTINUOUS
10
124.915
20
-142.598
11
124.82
21
-142.503
0
LINE
8
BLACK
6
CONTINUOUS
10
124.82
20
-142.503
11
124.629
21
-142.408
0
LINE
8
BLACK
6
CONTINUOUS
10
126.248
20
-141.55
11
126.439
21
-141.55
0
LINE
8
BLACK
6
CONTINUOUS
10
126.439
20
-141.55
11
126.629
21
-141.646
0
LINE
8
BLACK
6
CONTINUOUS
10
126.629
20
-141.646
11
126.724
21
-141.741
0
LINE
8
BLACK
6
CONTINUOUS
10
126.724
20
-141.741
11
126.82
21
-141.931
0
LINE
8
BLACK
6
CONTINUOUS
10
126.82
20
-141.931
11
126.915
21
-142.312
0
LINE
8
BLACK
6
CONTINUOUS
10
126.915
20
-142.312
11
126.915
21
-142.788
0
LINE
8
BLACK
6
CONTINUOUS
10
126.915
20
-142.788
11
126.82
21
-143.169
0
LINE
8
BLACK
6
CONTINUOUS
10
126.82
20
-143.169
11
126.724
21
-143.36
0
LINE
8
BLACK
6
CONTINUOUS
10
126.724
20
-143.36
11
126.629
21
-143.455
0
LINE
8
BLACK
6
CONTINUOUS
10
126.629
20
-143.455
11
126.439
21
-143.55
0
LINE
8
BLACK
6
CONTINUOUS
10
126.439
20
-143.55
11
126.248
21
-143.55
0
LINE
8
BLACK
6
CONTINUOUS
10
126.248
20
-143.55
11
126.058
21
-143.455
0
LINE
8
BLACK
6
CONTINUOUS
10
126.058
20
-143.455
11
125.962
21
-143.36
0
LINE
8
BLACK
6
CONTINUOUS
10
125.962
20
-143.36
11
125.867
21
-143.169
0
LINE
8
BLACK
6
CONTINUOUS
10
125.867
20
-143.169
11
125.772
21
-142.788
0
LINE
8
BLACK
6
CONTINUOUS
10
125.772
20
-142.788
11
125.772
21
-142.312
0
LINE
8
BLACK
6
CONTINUOUS
10
125.772
20
-142.312
11
125.867
21
-141.931
0
LINE
8
BLACK
6
CONTINUOUS
10
125.867
20
-141.931
11
125.962
21
-141.741
0
LINE
8
BLACK
6
CONTINUOUS
10
125.962
20
-141.741
11
126.058
21
-141.646
0
LINE
8
BLACK
6
CONTINUOUS
10
126.058
20
-141.646
11
126.248
21
-141.55
0
LINE
8
BLACK
6
CONTINUOUS
10
128.153
20
-141.55
11
128.343
21
-141.55
0
LINE
8
BLACK
6
CONTINUOUS
10
128.343
20
-141.55
11
128.534
21
-141.646
0
LINE
8
BLACK
6
CONTINUOUS
10
128.534
20
-141.646
11
128.629
21
-141.741
0
LINE
8
BLACK
6
CONTINUOUS
10
128.629
20
-141.741
11
128.724
21
-141.931
0
LINE
8
BLACK
6
CONTINUOUS
10
128.724
20
-141.931
11
128.82
21
-142.312
0
LINE
8
BLACK
6
CONTINUOUS
10
128.82
20
-142.312
11
128.82
21
-142.788
0
LINE
8
BLACK
6
CONTINUOUS
10
128.82
20
-142.788
11
128.724
21
-143.169
0
LINE
8
BLACK
6
CONTINUOUS
10
128.724
20
-143.169
11
128.629
21
-143.36
0
LINE
8
BLACK
6
CONTINUOUS
10
128.629
20
-143.36
11
128.534
21
-143.455
0
LINE
8
BLACK
6
CONTINUOUS
10
128.534
20
-143.455
11
128.343
21
-143.55
0
LINE
8
BLACK
6
CONTINUOUS
10
128.343
20
-143.55
11
128.153
21
-143.55
0
LINE
8
BLACK
6
CONTINUOUS
10
128.153
20
-143.55
11
127.962
21
-143.455
0
LINE
8
BLACK
6
CONTINUOUS
10
127.962
20
-143.455
11
127.867
21
-143.36
0
LINE
8
BLACK
6
CONTINUOUS
10
127.867
20
-143.36
11
127.772
21
-143.169
0
LINE
8
BLACK
6
CONTINUOUS
10
127.772
20
-143.169
11
127.677
21
-142.788
0
LINE
8
BLACK
6
CONTINUOUS
10
127.677
20
-142.788
11
127.677
21
-142.312
0
LINE
8
BLACK
6
CONTINUOUS
10
127.677
20
-142.312
11
127.772
21
-141.931
0
LINE
8
BLACK
6
CONTINUOUS
10
127.772
20
-141.931
11
127.867
21
-141.741
0
LINE
8
BLACK
6
CONTINUOUS
10
127.867
20
-141.741
11
127.962
21
-141.646
0
LINE
8
BLACK
6
CONTINUOUS
10
127.962
20
-141.646
11
128.153
21
-141.55
0
LINE
8
BLACK
6
CONTINUOUS
10
129.677
20
-143.55
11
129.677
21
-142.217
0
LINE
8
BLACK
6
CONTINUOUS
10
129.677
20
-142.408
11
129.772
21
-142.312
0
LINE
8
BLACK
6
CONTINUOUS
10
129.772
20
-142.312
11
129.962
21
-142.217
0
LINE
8
BLACK
6
CONTINUOUS
10
129.962
20
-142.217
11
130.248
21
-142.217
0
LINE
8
BLACK
6
CONTINUOUS
10
130.248
20
-142.217
11
130.439
21
-142.312
0
LINE
8
BLACK
6
CONTINUOUS
10
130.439
20
-142.312
11
130.534
21
-142.503
0
LINE
8
BLACK
6
CONTINUOUS
10
130.534
20
-142.503
11
130.534
21
-143.55
0
LINE
8
BLACK
6
CONTINUOUS
10
130.534
20
-142.503
11
130.629
21
-142.312
0
LINE
8
BLACK
6
CONTINUOUS
10
130.629
20
-142.312
11
130.82
21
-142.217
0
LINE
8
BLACK
6
CONTINUOUS
10
130.82
20
-142.217
11
131.105
21
-142.217
0
LINE
8
BLACK
6
CONTINUOUS
10
131.105
20
-142.217
11
131.296
21
-142.312
0
LINE
8
BLACK
6
CONTINUOUS
10
131.296
20
-142.312
11
131.391
21
-142.503
0
LINE
8
BLACK
6
CONTINUOUS
10
131.391
20
-142.503
11
131.391
21
-143.55
0
LINE
8
BLACK
6
CONTINUOUS
10
132.343
20
-143.55
11
132.343
21
-142.217
0
LINE
8
BLACK
6
CONTINUOUS
10
132.343
20
-142.408
11
132.439
21
-142.312
0
LINE
8
BLACK
6
CONTINUOUS
10
132.439
20
-142.312
11
132.629
21
-142.217
0
LINE
8
BLACK
6
CONTINUOUS
10
132.629
20
-142.217
11
132.915
21
-142.217
0
LINE
8
BLACK
6
CONTINUOUS
10
132.915
20
-142.217
11
133.105
21
-142.312
0
LINE
8
BLACK
6
CONTINUOUS
10
133.105
20
-142.312
11
133.201
21
-142.503
0
LINE
8
BLACK
6
CONTINUOUS
10
133.201
20
-142.503
11
133.201
21
-143.55
0
LINE
8
BLACK
6
CONTINUOUS
10
133.201
20
-142.503
11
133.296
21
-142.312
0
LINE
8
BLACK
6
CONTINUOUS
10
133.296
20
-142.312
11
133.486
21
-142.217
0
LINE
8
BLACK
6
CONTINUOUS
10
133.486
20
-142.217
11
133.772
21
-142.217
0
LINE
8
BLACK
6
CONTINUOUS
10
133.772
20
-142.217
11
133.962
21
-142.312
0
LINE
8
BLACK
6
CONTINUOUS
10
133.962
20
-142.312
11
134.058
21
-142.503
0
LINE
8
BLACK
6
CONTINUOUS
10
134.058
20
-142.503
11
134.058
21
-143.55
0
LINE
8
BLACK
6
CONTINUOUS
10
137.962
20
-141.455
11
136.248
21
-144.027
0
LINE
8
BLACK
6
CONTINUOUS
10
140.534
20
-141.55
11
140.724
21
-141.55
0
LINE
8
BLACK
6
CONTINUOUS
10
140.724
20
-141.55
11
140.915
21
-141.646
0
LINE
8
BLACK
6
CONTINUOUS
10
140.915
20
-141.646
11
141.01
21
-141.741
0
LINE
8
BLACK
6
CONTINUOUS
10
141.01
20
-141.741
11
141.105
21
-141.931
0
LINE
8
BLACK
6
CONTINUOUS
10
141.105
20
-141.931
11
141.201
21
-142.312
0
LINE
8
BLACK
6
CONTINUOUS
10
141.201
20
-142.312
11
141.201
21
-142.788
0
LINE
8
BLACK
6
CONTINUOUS
10
141.201
20
-142.788
11
141.105
21
-143.169
0
LINE
8
BLACK
6
CONTINUOUS
10
141.105
20
-143.169
11
141.01
21
-143.36
0
LINE
8
BLACK
6
CONTINUOUS
10
141.01
20
-143.36
11
140.915
21
-143.455
0
LINE
8
BLACK
6
CONTINUOUS
10
140.915
20
-143.455
11
140.724
21
-143.55
0
LINE
8
BLACK
6
CONTINUOUS
10
140.724
20
-143.55
11
140.534
21
-143.55
0
LINE
8
BLACK
6
CONTINUOUS
10
140.534
20
-143.55
11
140.343
21
-143.455
0
LINE
8
BLACK
6
CONTINUOUS
10
140.343
20
-143.455
11
140.248
21
-143.36
0
LINE
8
BLACK
6
CONTINUOUS
10
140.248
20
-143.36
11
140.153
21
-143.169
0
LINE
8
BLACK
6
CONTINUOUS
10
140.153
20
-143.169
11
140.058
21
-142.788
0
LINE
8
BLACK
6
CONTINUOUS
10
140.058
20
-142.788
11
140.058
21
-142.312
0
LINE
8
BLACK
6
CONTINUOUS
10
140.058
20
-142.312
11
140.153
21
-141.931
0
LINE
8
BLACK
6
CONTINUOUS
10
140.153
20
-141.931
11
140.248
21
-141.741
0
LINE
8
BLACK
6
CONTINUOUS
10
140.248
20
-141.741
11
140.343
21
-141.646
0
LINE
8
BLACK
6
CONTINUOUS
10
140.343
20
-141.646
11
140.534
21
-141.55
0
LINE
8
BLACK
6
CONTINUOUS
10
142.058
20
-143.36
11
142.153
21
-143.455
0
LINE
8
BLACK
6
CONTINUOUS
10
142.153
20
-143.455
11
142.058
21
-143.55
0
LINE
8
BLACK
6
CONTINUOUS
10
142.058
20
-143.55
11
141.962
21
-143.455
0
LINE
8
BLACK
6
CONTINUOUS
10
141.962
20
-143.455
11
142.058
21
-143.36
0
LINE
8
BLACK
6
CONTINUOUS
10
142.058
20
-143.36
11
142.058
21
-143.55
0
LINE
8
BLACK
6
CONTINUOUS
10
143.391
20
-141.55
11
143.581
21
-141.55
0
LINE
8
BLACK
6
CONTINUOUS
10
143.581
20
-141.55
11
143.772
21
-141.646
0
LINE
8
BLACK
6
CONTINUOUS
10
143.772
20
-141.646
11
143.867
21
-141.741
0
LINE
8
BLACK
6
CONTINUOUS
10
143.867
20
-141.741
11
143.962
21
-141.931
0
LINE
8
BLACK
6
CONTINUOUS
10
143.962
20
-141.931
11
144.058
21
-142.312
0
LINE
8
BLACK
6
CONTINUOUS
10
144.058
20
-142.312
11
144.058
21
-142.788
0
LINE
8
BLACK
6
CONTINUOUS
10
144.058
20
-142.788
11
143.962
21
-143.169
0
LINE
8
BLACK
6
CONTINUOUS
10
143.962
20
-143.169
11
143.867
21
-143.36
0
LINE
8
BLACK
6
CONTINUOUS
10
143.867
20
-143.36
11
143.772
21
-143.455
0
LINE
8
BLACK
6
CONTINUOUS
10
143.772
20
-143.455
11
143.581
21
-143.55
0
LINE
8
BLACK
6
CONTINUOUS
10
143.581
20
-143.55
11
143.391
21
-143.55
0
LINE
8
BLACK
6
CONTINUOUS
10
143.391
20
-143.55
11
143.201
21
-143.455
0
LINE
8
BLACK
6
CONTINUOUS
10
143.201
20
-143.455
11
143.105
21
-143.36
0
LINE
8
BLACK
6
CONTINUOUS
10
143.105
20
-143.36
11
143.01
21
-143.169
0
LINE
8
BLACK
6
CONTINUOUS
10
143.01
20
-143.169
11
142.915
21
-142.788
0
LINE
8
BLACK
6
CONTINUOUS
10
142.915
20
-142.788
11
142.915
21
-142.312
0
LINE
8
BLACK
6
CONTINUOUS
10
142.915
20
-142.312
11
143.01
21
-141.931
0
LINE
8
BLACK
6
CONTINUOUS
10
143.01
20
-141.931
11
143.105
21
-141.741
0
LINE
8
BLACK
6
CONTINUOUS
10
143.105
20
-141.741
11
143.201
21
-141.646
0
LINE
8
BLACK
6
CONTINUOUS
10
143.201
20
-141.646
11
143.391
21
-141.55
0
LINE
8
BLACK
6
CONTINUOUS
10
144.724
20
-141.55
11
145.962
21
-141.55
0
LINE
8
BLACK
6
CONTINUOUS
10
145.962
20
-141.55
11
145.296
21
-142.312
0
LINE
8
BLACK
6
CONTINUOUS
10
145.296
20
-142.312
11
145.581
21
-142.312
0
LINE
8
BLACK
6
CONTINUOUS
10
145.581
20
-142.312
11
145.772
21
-142.408
0
LINE
8
BLACK
6
CONTINUOUS
10
145.772
20
-142.408
11
145.867
21
-142.503
0
LINE
8
BLACK
6
CONTINUOUS
10
145.867
20
-142.503
11
145.962
21
-142.693
0
LINE
8
BLACK
6
CONTINUOUS
10
145.962
20
-142.693
11
145.962
21
-143.169
0
LINE
8
BLACK
6
CONTINUOUS
10
145.962
20
-143.169
11
145.867
21
-143.36
0
LINE
8
BLACK
6
CONTINUOUS
10
145.867
20
-143.36
11
145.772
21
-143.455
0
LINE
8
BLACK
6
CONTINUOUS
10
145.772
20
-143.455
11
145.581
21
-143.55
0
LINE
8
BLACK
6
CONTINUOUS
10
145.581
20
-143.55
11
145.01
21
-143.55
0
LINE
8
BLACK
6
CONTINUOUS
10
145.01
20
-143.55
11
144.82
21
-143.455
0
LINE
8
BLACK
6
CONTINUOUS
10
144.82
20
-143.455
11
144.724
21
-143.36
0
LINE
8
BLACK
6
CONTINUOUS
10
147.867
20
-143.55
11
146.724
21
-143.55
0
LINE
8
BLACK
6
CONTINUOUS
10
147.296
20
-143.55
11
147.296
21
-141.55
0
LINE
8
BLACK
6
CONTINUOUS
10
147.296
20
-141.55
11
147.105
21
-141.836
0
LINE
8
BLACK
6
CONTINUOUS
10
147.105
20
-141.836
11
146.915
21
-142.027
0
LINE
8
BLACK
6
CONTINUOUS
10
146.915
20
-142.027
11
146.724
21
-142.122
0
LINE
8
BLACK
6
CONTINUOUS
10
149.677
20
-141.55
11
148.724
21
-141.55
0
LINE
8
BLACK
6
CONTINUOUS
10
148.724
20
-141.55
11
148.629
21
-142.503
0
LINE
8
BLACK
6
CONTINUOUS
10
148.629
20
-142.503
11
148.724
21
-142.408
0
LINE
8
BLACK
6
CONTINUOUS
10
148.724
20
-142.408
11
148.915
21
-142.312
0
LINE
8
BLACK
6
CONTINUOUS
10
148.915
20
-142.312
11
149.391
21
-142.312
0
LINE
8
BLACK
6
CONTINUOUS
10
149.391
20
-142.312
11
149.581
21
-142.408
0
LINE
8
BLACK
6
CONTINUOUS
10
149.581
20
-142.408
11
149.677
21
-142.503
0
LINE
8
BLACK
6
CONTINUOUS
10
149.677
20
-142.503
11
149.772
21
-142.693
0
LINE
8
BLACK
6
CONTINUOUS
10
149.772
20
-142.693
11
149.772
21
-143.169
0
LINE
8
BLACK
6
CONTINUOUS
10
149.772
20
-143.169
11
149.677
21
-143.36
0
LINE
8
BLACK
6
CONTINUOUS
10
149.677
20
-143.36
11
149.581
21
-143.455
0
LINE
8
BLACK
6
CONTINUOUS
10
149.581
20
-143.455
11
149.391
21
-143.55
0
LINE
8
BLACK
6
CONTINUOUS
10
149.391
20
-143.55
11
148.915
21
-143.55
0
LINE
8
BLACK
6
CONTINUOUS
10
148.915
20
-143.55
11
148.724
21
-143.455
0
LINE
8
BLACK
6
CONTINUOUS
10
148.724
20
-143.455
11
148.629
21
-143.36
0
LINE
8
BLACK
6
CONTINUOUS
10
150.534
20
-141.55
11
150.534
21
-141.931
0
LINE
8
BLACK
6
CONTINUOUS
10
151.296
20
-141.55
11
151.296
21
-141.931
0
LINE
8
BLACK
6
CONTINUOUS
10
154.248
20
-144.312
11
154.153
21
-144.217
0
LINE
8
BLACK
6
CONTINUOUS
10
154.153
20
-144.217
11
153.962
21
-143.931
0
LINE
8
BLACK
6
CONTINUOUS
10
153.962
20
-143.931
11
153.867
21
-143.741
0
LINE
8
BLACK
6
CONTINUOUS
10
153.867
20
-143.741
11
153.772
21
-143.455
0
LINE
8
BLACK
6
CONTINUOUS
10
153.772
20
-143.455
11
153.677
21
-142.979
0
LINE
8
BLACK
6
CONTINUOUS
10
153.677
20
-142.979
11
153.677
21
-142.598
0
LINE
8
BLACK
6
CONTINUOUS
10
153.677
20
-142.598
11
153.772
21
-142.122
0
LINE
8
BLACK
6
CONTINUOUS
10
153.772
20
-142.122
11
153.867
21
-141.836
0
LINE
8
BLACK
6
CONTINUOUS
10
153.867
20
-141.836
11
153.962
21
-141.646
0
LINE
8
BLACK
6
CONTINUOUS
10
153.962
20
-141.646
11
154.153
21
-141.36
0
LINE
8
BLACK
6
CONTINUOUS
10
154.153
20
-141.36
11
154.248
21
-141.265
0
LINE
8
BLACK
6
CONTINUOUS
10
155.867
20
-142.217
11
155.867
21
-143.55
0
LINE
8
BLACK
6
CONTINUOUS
10
155.391
20
-141.455
11
154.915
21
-142.884
0
LINE
8
BLACK
6
CONTINUOUS
10
154.915
20
-142.884
11
156.153
21
-142.884
0
LINE
8
BLACK
6
CONTINUOUS
10
156.82
20
-141.741
11
156.915
21
-141.646
0
LINE
8
BLACK
6
CONTINUOUS
10
156.915
20
-141.646
11
157.105
21
-141.55
0
LINE
8
BLACK
6
CONTINUOUS
10
157.105
20
-141.55
11
157.581
21
-141.55
0
LINE
8
BLACK
6
CONTINUOUS
10
157.581
20
-141.55
11
157.772
21
-141.646
0
LINE
8
BLACK
6
CONTINUOUS
10
157.772
20
-141.646
11
157.867
21
-141.741
0
LINE
8
BLACK
6
CONTINUOUS
10
157.867
20
-141.741
11
157.962
21
-141.931
0
LINE
8
BLACK
6
CONTINUOUS
10
157.962
20
-141.931
11
157.962
21
-142.122
0
LINE
8
BLACK
6
CONTINUOUS
10
157.962
20
-142.122
11
157.867
21
-142.408
0
LINE
8
BLACK
6
CONTINUOUS
10
157.867
20
-142.408
11
156.724
21
-143.55
0
LINE
8
BLACK
6
CONTINUOUS
10
156.724
20
-143.55
11
157.962
21
-143.55
0
LINE
8
BLACK
6
CONTINUOUS
10
160.343
20
-143.55
11
160.343
21
-141.55
0
LINE
8
BLACK
6
CONTINUOUS
10
161.201
20
-143.55
11
161.201
21
-142.503
0
LINE
8
BLACK
6
CONTINUOUS
10
161.201
20
-142.503
11
161.105
21
-142.312
0
LINE
8
BLACK
6
CONTINUOUS
10
161.105
20
-142.312
11
160.915
21
-142.217
0
LINE
8
BLACK
6
CONTINUOUS
10
160.915
20
-142.217
11
160.629
21
-142.217
0
LINE
8
BLACK
6
CONTINUOUS
10
160.629
20
-142.217
11
160.439
21
-142.312
0
LINE
8
BLACK
6
CONTINUOUS
10
160.439
20
-142.312
11
160.343
21
-142.408
0
LINE
8
BLACK
6
CONTINUOUS
10
162.439
20
-143.55
11
162.248
21
-143.455
0
LINE
8
BLACK
6
CONTINUOUS
10
162.248
20
-143.455
11
162.153
21
-143.36
0
LINE
8
BLACK
6
CONTINUOUS
10
162.153
20
-143.36
11
162.058
21
-143.169
0
LINE
8
BLACK
6
CONTINUOUS
10
162.058
20
-143.169
11
162.058
21
-142.598
0
LINE
8
BLACK
6
CONTINUOUS
10
162.058
20
-142.598
11
162.153
21
-142.408
0
LINE
8
BLACK
6
CONTINUOUS
10
162.153
20
-142.408
11
162.248
21
-142.312
0
LINE
8
BLACK
6
CONTINUOUS
10
162.248
20
-142.312
11
162.439
21
-142.217
0
LINE
8
BLACK
6
CONTINUOUS
10
162.439
20
-142.217
11
162.724
21
-142.217
0
LINE
8
BLACK
6
CONTINUOUS
10
162.724
20
-142.217
11
162.915
21
-142.312
0
LINE
8
BLACK
6
CONTINUOUS
10
162.915
20
-142.312
11
163.01
21
-142.408
0
LINE
8
BLACK
6
CONTINUOUS
10
163.01
20
-142.408
11
163.105
21
-142.598
0
LINE
8
BLACK
6
CONTINUOUS
10
163.105
20
-142.598
11
163.105
21
-143.169
0
LINE
8
BLACK
6
CONTINUOUS
10
163.105
20
-143.169
11
163.01
21
-143.36
0
LINE
8
BLACK
6
CONTINUOUS
10
163.01
20
-143.36
11
162.915
21
-143.455
0
LINE
8
BLACK
6
CONTINUOUS
10
162.915
20
-143.455
11
162.724
21
-143.55
0
LINE
8
BLACK
6
CONTINUOUS
10
162.724
20
-143.55
11
162.439
21
-143.55
0
LINE
8
BLACK
6
CONTINUOUS
10
164.248
20
-143.55
11
164.058
21
-143.455
0
LINE
8
BLACK
6
CONTINUOUS
10
164.058
20
-143.455
11
163.962
21
-143.265
0
LINE
8
BLACK
6
CONTINUOUS
10
163.962
20
-143.265
11
163.962
21
-141.55
0
LINE
8
BLACK
6
CONTINUOUS
10
165.772
20
-143.455
11
165.581
21
-143.55
0
LINE
8
BLACK
6
CONTINUOUS
10
165.581
20
-143.55
11
165.201
21
-143.55
0
LINE
8
BLACK
6
CONTINUOUS
10
165.201
20
-143.55
11
165.01
21
-143.455
0
LINE
8
BLACK
6
CONTINUOUS
10
165.01
20
-143.455
11
164.915
21
-143.265
0
LINE
8
BLACK
6
CONTINUOUS
10
164.915
20
-143.265
11
164.915
21
-142.503
0
LINE
8
BLACK
6
CONTINUOUS
10
164.915
20
-142.503
11
165.01
21
-142.312
0
LINE
8
BLACK
6
CONTINUOUS
10
165.01
20
-142.312
11
165.201
21
-142.217
0
LINE
8
BLACK
6
CONTINUOUS
10
165.201
20
-142.217
11
165.581
21
-142.217
0
LINE
8
BLACK
6
CONTINUOUS
10
165.581
20
-142.217
11
165.772
21
-142.312
0
LINE
8
BLACK
6
CONTINUOUS
10
165.772
20
-142.312
11
165.867
21
-142.503
0
LINE
8
BLACK
6
CONTINUOUS
10
165.867
20
-142.503
11
165.867
21
-142.693
0
LINE
8
BLACK
6
CONTINUOUS
10
165.867
20
-142.693
11
164.915
21
-142.884
0
LINE
8
BLACK
6
CONTINUOUS
10
166.629
20
-143.455
11
166.82
21
-143.55
0
LINE
8
BLACK
6
CONTINUOUS
10
166.82
20
-143.55
11
167.201
21
-143.55
0
LINE
8
BLACK
6
CONTINUOUS
10
167.201
20
-143.55
11
167.391
21
-143.455
0
LINE
8
BLACK
6
CONTINUOUS
10
167.391
20
-143.455
11
167.486
21
-143.265
0
LINE
8
BLACK
6
CONTINUOUS
10
167.486
20
-143.265
11
167.486
21
-143.169
0
LINE
8
BLACK
6
CONTINUOUS
10
167.486
20
-143.169
11
167.391
21
-142.979
0
LINE
8
BLACK
6
CONTINUOUS
10
167.391
20
-142.979
11
167.201
21
-142.884
0
LINE
8
BLACK
6
CONTINUOUS
10
167.201
20
-142.884
11
166.915
21
-142.884
0
LINE
8
BLACK
6
CONTINUOUS
10
166.915
20
-142.884
11
166.724
21
-142.788
0
LINE
8
BLACK
6
CONTINUOUS
10
166.724
20
-142.788
11
166.629
21
-142.598
0
LINE
8
BLACK
6
CONTINUOUS
10
166.629
20
-142.598
11
166.629
21
-142.503
0
LINE
8
BLACK
6
CONTINUOUS
10
166.629
20
-142.503
11
166.724
21
-142.312
0
LINE
8
BLACK
6
CONTINUOUS
10
166.724
20
-142.312
11
166.915
21
-142.217
0
LINE
8
BLACK
6
CONTINUOUS
10
166.915
20
-142.217
11
167.201
21
-142.217
0
LINE
8
BLACK
6
CONTINUOUS
10
167.201
20
-142.217
11
167.391
21
-142.312
0
LINE
8
BLACK
6
CONTINUOUS
10
168.153
20
-144.312
11
168.248
21
-144.217
0
LINE
8
BLACK
6
CONTINUOUS
10
168.248
20
-144.217
11
168.439
21
-143.931
0
LINE
8
BLACK
6
CONTINUOUS
10
168.439
20
-143.931
11
168.534
21
-143.741
0
LINE
8
BLACK
6
CONTINUOUS
10
168.534
20
-143.741
11
168.629
21
-143.455
0
LINE
8
BLACK
6
CONTINUOUS
10
168.629
20
-143.455
11
168.724
21
-142.979
0
LINE
8
BLACK
6
CONTINUOUS
10
168.724
20
-142.979
11
168.724
21
-142.598
0
LINE
8
BLACK
6
CONTINUOUS
10
168.724
20
-142.598
11
168.629
21
-142.122
0
LINE
8
BLACK
6
CONTINUOUS
10
168.629
20
-142.122
11
168.534
21
-141.836
0
LINE
8
BLACK
6
CONTINUOUS
10
168.534
20
-141.836
11
168.439
21
-141.646
0
LINE
8
BLACK
6
CONTINUOUS
10
168.439
20
-141.646
11
168.248
21
-141.36
0
LINE
8
BLACK
6
CONTINUOUS
10
168.248
20
-141.36
11
168.153
21
-141.265
0
CIRCLE
8
BLACK
10
118.072
20
-145.286
40
0.4572
0
LINE
8
BLACK
6
CONTINUOUS
10
121.486
20
-144.19
11
121.677
21
-144.19
0
LINE
8
BLACK
6
CONTINUOUS
10
121.677
20
-144.19
11
121.867
21
-144.286
0
LINE
8
BLACK
6
CONTINUOUS
10
121.867
20
-144.286
11
121.962
21
-144.381
0
LINE
8
BLACK
6
CONTINUOUS
10
121.962
20
-144.381
11
122.058
21
-144.571
0
LINE
8
BLACK
6
CONTINUOUS
10
122.058
20
-144.571
11
122.153
21
-144.952
0
LINE
8
BLACK
6
CONTINUOUS
10
122.153
20
-144.952
11
122.153
21
-145.428
0
LINE
8
BLACK
6
CONTINUOUS
10
122.153
20
-145.428
11
122.058
21
-145.809
0
LINE
8
BLACK
6
CONTINUOUS
10
122.058
20
-145.809
11
121.962
21
-146
0
LINE
8
BLACK
6
CONTINUOUS
10
121.962
20
-146
11
121.867
21
-146.095
0
LINE
8
BLACK
6
CONTINUOUS
10
121.867
20
-146.095
11
121.677
21
-146.19
0
LINE
8
BLACK
6
CONTINUOUS
10
121.677
20
-146.19
11
121.486
21
-146.19
0
LINE
8
BLACK
6
CONTINUOUS
10
121.486
20
-146.19
11
121.296
21
-146.095
0
LINE
8
BLACK
6
CONTINUOUS
10
121.296
20
-146.095
11
121.201
21
-146
0
LINE
8
BLACK
6
CONTINUOUS
10
121.201
20
-146
11
121.105
21
-145.809
0
LINE
8
BLACK
6
CONTINUOUS
10
121.105
20
-145.809
11
121.01
21
-145.428
0
LINE
8
BLACK
6
CONTINUOUS
10
121.01
20
-145.428
11
121.01
21
-144.952
0
LINE
8
BLACK
6
CONTINUOUS
10
121.01
20
-144.952
11
121.105
21
-144.571
0
LINE
8
BLACK
6
CONTINUOUS
10
121.105
20
-144.571
11
121.201
21
-144.381
0
LINE
8
BLACK
6
CONTINUOUS
10
121.201
20
-144.381
11
121.296
21
-144.286
0
LINE
8
BLACK
6
CONTINUOUS
10
121.296
20
-144.286
11
121.486
21
-144.19
0
LINE
8
BLACK
6
CONTINUOUS
10
123.01
20
-146
11
123.105
21
-146.095
0
LINE
8
BLACK
6
CONTINUOUS
10
123.105
20
-146.095
11
123.01
21
-146.19
0
LINE
8
BLACK
6
CONTINUOUS
10
123.01
20
-146.19
11
122.915
21
-146.095
0
LINE
8
BLACK
6
CONTINUOUS
10
122.915
20
-146.095
11
123.01
21
-146
0
LINE
8
BLACK
6
CONTINUOUS
10
123.01
20
-146
11
123.01
21
-146.19
0
LINE
8
BLACK
6
CONTINUOUS
10
124.058
20
-146.19
11
124.439
21
-146.19
0
LINE
8
BLACK
6
CONTINUOUS
10
124.439
20
-146.19
11
124.629
21
-146.095
0
LINE
8
BLACK
6
CONTINUOUS
10
124.629
20
-146.095
11
124.724
21
-146
0
LINE
8
BLACK
6
CONTINUOUS
10
124.724
20
-146
11
124.915
21
-145.714
0
LINE
8
BLACK
6
CONTINUOUS
10
124.915
20
-145.714
11
125.01
21
-145.333
0
LINE
8
BLACK
6
CONTINUOUS
10
125.01
20
-145.333
11
125.01
21
-144.571
0
LINE
8
BLACK
6
CONTINUOUS
10
125.01
20
-144.571
11
124.915
21
-144.381
0
LINE
8
BLACK
6
CONTINUOUS
10
124.915
20
-144.381
11
124.82
21
-144.286
0
LINE
8
BLACK
6
CONTINUOUS
10
124.82
20
-144.286
11
124.629
21
-144.19
0
LINE
8
BLACK
6
CONTINUOUS
10
124.629
20
-144.19
11
124.248
21
-144.19
0
LINE
8
BLACK
6
CONTINUOUS
10
124.248
20
-144.19
11
124.058
21
-144.286
0
LINE
8
BLACK
6
CONTINUOUS
10
124.058
20
-144.286
11
123.962
21
-144.381
0
LINE
8
BLACK
6
CONTINUOUS
10
123.962
20
-144.381
11
123.867
21
-144.571
0
LINE
8
BLACK
6
CONTINUOUS
10
123.867
20
-144.571
11
123.867
21
-145.048
0
LINE
8
BLACK
6
CONTINUOUS
10
123.867
20
-145.048
11
123.962
21
-145.238
0
LINE
8
BLACK
6
CONTINUOUS
10
123.962
20
-145.238
11
124.058
21
-145.333
0
LINE
8
BLACK
6
CONTINUOUS
10
124.058
20
-145.333
11
124.248
21
-145.428
0
LINE
8
BLACK
6
CONTINUOUS
10
124.248
20
-145.428
11
124.629
21
-145.428
0
LINE
8
BLACK
6
CONTINUOUS
10
124.629
20
-145.428
11
124.82
21
-145.333
0
LINE
8
BLACK
6
CONTINUOUS
10
124.82
20
-145.333
11
124.915
21
-145.238
0
LINE
8
BLACK
6
CONTINUOUS
10
124.915
20
-145.238
11
125.01
21
-145.048
0
LINE
8
BLACK
6
CONTINUOUS
10
126.915
20
-146.19
11
125.772
21
-146.19
0
LINE
8
BLACK
6
CONTINUOUS
10
126.343
20
-146.19
11
126.343
21
-144.19
0
LINE
8
BLACK
6
CONTINUOUS
10
126.343
20
-144.19
11
126.153
21
-144.476
0
LINE
8
BLACK
6
CONTINUOUS
10
126.153
20
-144.476
11
125.962
21
-144.667
0
LINE
8
BLACK
6
CONTINUOUS
10
125.962
20
-144.667
11
125.772
21
-144.762
0
LINE
8
BLACK
6
CONTINUOUS
10
128.629
20
-144.857
11
128.629
21
-146.19
0
LINE
8
BLACK
6
CONTINUOUS
10
128.153
20
-144.095
11
127.677
21
-145.524
0
LINE
8
BLACK
6
CONTINUOUS
10
127.677
20
-145.524
11
128.915
21
-145.524
0
LINE
8
BLACK
6
CONTINUOUS
10
129.677
20
-146.19
11
129.677
21
-144.857
0
LINE
8
BLACK
6
CONTINUOUS
10
129.677
20
-145.048
11
129.772
21
-144.952
0
LINE
8
BLACK
6
CONTINUOUS
10
129.772
20
-144.952
11
129.962
21
-144.857
0
LINE
8
BLACK
6
CONTINUOUS
10
129.962
20
-144.857
11
130.248
21
-144.857
0
LINE
8
BLACK
6
CONTINUOUS
10
130.248
20
-144.857
11
130.439
21
-144.952
0
LINE
8
BLACK
6
CONTINUOUS
10
130.439
20
-144.952
11
130.534
21
-145.143
0
LINE
8
BLACK
6
CONTINUOUS
10
130.534
20
-145.143
11
130.534
21
-146.19
0
LINE
8
BLACK
6
CONTINUOUS
10
130.534
20
-145.143
11
130.629
21
-144.952
0
LINE
8
BLACK
6
CONTINUOUS
10
130.629
20
-144.952
11
130.82
21
-144.857
0
LINE
8
BLACK
6
CONTINUOUS
10
130.82
20
-144.857
11
131.105
21
-144.857
0
LINE
8
BLACK
6
CONTINUOUS
10
131.105
20
-144.857
11
131.296
21
-144.952
0
LINE
8
BLACK
6
CONTINUOUS
10
131.296
20
-144.952
11
131.391
21
-145.143
0
LINE
8
BLACK
6
CONTINUOUS
10
131.391
20
-145.143
11
131.391
21
-146.19
0
LINE
8
BLACK
6
CONTINUOUS
10
132.343
20
-146.19
11
132.343
21
-144.857
0
LINE
8
BLACK
6
CONTINUOUS
10
132.343
20
-145.048
11
132.439
21
-144.952
0
LINE
8
BLACK
6
CONTINUOUS
10
132.439
20
-144.952
11
132.629
21
-144.857
0
LINE
8
BLACK
6
CONTINUOUS
10
132.629
20
-144.857
11
132.915
21
-144.857
0
LINE
8
BLACK
6
CONTINUOUS
10
132.915
20
-144.857
11
133.105
21
-144.952
0
LINE
8
BLACK
6
CONTINUOUS
10
133.105
20
-144.952
11
133.201
21
-145.143
0
LINE
8
BLACK
6
CONTINUOUS
10
133.201
20
-145.143
11
133.201
21
-146.19
0
LINE
8
BLACK
6
CONTINUOUS
10
133.201
20
-145.143
11
133.296
21
-144.952
0
LINE
8
BLACK
6
CONTINUOUS
10
133.296
20
-144.952
11
133.486
21
-144.857
0
LINE
8
BLACK
6
CONTINUOUS
10
133.486
20
-144.857
11
133.772
21
-144.857
0
LINE
8
BLACK
6
CONTINUOUS
10
133.772
20
-144.857
11
133.962
21
-144.952
0
LINE
8
BLACK
6
CONTINUOUS
10
133.962
20
-144.952
11
134.058
21
-145.143
0
LINE
8
BLACK
6
CONTINUOUS
10
134.058
20
-145.143
11
134.058
21
-146.19
0
LINE
8
BLACK
6
CONTINUOUS
10
137.962
20
-144.095
11
136.248
21
-146.667
0
LINE
8
BLACK
6
CONTINUOUS
10
140.534
20
-144.19
11
140.724
21
-144.19
0
LINE
8
BLACK
6
CONTINUOUS
10
140.724
20
-144.19
11
140.915
21
-144.286
0
LINE
8
BLACK
6
CONTINUOUS
10
140.915
20
-144.286
11
141.01
21
-144.381
0
LINE
8
BLACK
6
CONTINUOUS
10
141.01
20
-144.381
11
141.105
21
-144.571
0
LINE
8
BLACK
6
CONTINUOUS
10
141.105
20
-144.571
11
141.201
21
-144.952
0
LINE
8
BLACK
6
CONTINUOUS
10
141.201
20
-144.952
11
141.201
21
-145.428
0
LINE
8
BLACK
6
CONTINUOUS
10
141.201
20
-145.428
11
141.105
21
-145.809
0
LINE
8
BLACK
6
CONTINUOUS
10
141.105
20
-145.809
11
141.01
21
-146
0
LINE
8
BLACK
6
CONTINUOUS
10
141.01
20
-146
11
140.915
21
-146.095
0
LINE
8
BLACK
6
CONTINUOUS
10
140.915
20
-146.095
11
140.724
21
-146.19
0
LINE
8
BLACK
6
CONTINUOUS
10
140.724
20
-146.19
11
140.534
21
-146.19
0
LINE
8
BLACK
6
CONTINUOUS
10
140.534
20
-146.19
11
140.343
21
-146.095
0
LINE
8
BLACK
6
CONTINUOUS
10
140.343
20
-146.095
11
140.248
21
-146
0
LINE
8
BLACK
6
CONTINUOUS
10
140.248
20
-146
11
140.153
21
-145.809
0
LINE
8
BLACK
6
CONTINUOUS
10
140.153
20
-145.809
11
140.058
21
-145.428
0
LINE
8
BLACK
6
CONTINUOUS
10
140.058
20
-145.428
11
140.058
21
-144.952
0
LINE
8
BLACK
6
CONTINUOUS
10
140.058
20
-144.952
11
140.153
21
-144.571
0
LINE
8
BLACK
6
CONTINUOUS
10
140.153
20
-144.571
11
140.248
21
-144.381
0
LINE
8
BLACK
6
CONTINUOUS
10
140.248
20
-144.381
11
140.343
21
-144.286
0
LINE
8
BLACK
6
CONTINUOUS
10
140.343
20
-144.286
11
140.534
21
-144.19
0
LINE
8
BLACK
6
CONTINUOUS
10
142.058
20
-146
11
142.153
21
-146.095
0
LINE
8
BLACK
6
CONTINUOUS
10
142.153
20
-146.095
11
142.058
21
-146.19
0
LINE
8
BLACK
6
CONTINUOUS
10
142.058
20
-146.19
11
141.962
21
-146.095
0
LINE
8
BLACK
6
CONTINUOUS
10
141.962
20
-146.095
11
142.058
21
-146
0
LINE
8
BLACK
6
CONTINUOUS
10
142.058
20
-146
11
142.058
21
-146.19
0
LINE
8
BLACK
6
CONTINUOUS
10
143.391
20
-144.19
11
143.581
21
-144.19
0
LINE
8
BLACK
6
CONTINUOUS
10
143.581
20
-144.19
11
143.772
21
-144.286
0
LINE
8
BLACK
6
CONTINUOUS
10
143.772
20
-144.286
11
143.867
21
-144.381
0
LINE
8
BLACK
6
CONTINUOUS
10
143.867
20
-144.381
11
143.962
21
-144.571
0
LINE
8
BLACK
6
CONTINUOUS
10
143.962
20
-144.571
11
144.058
21
-144.952
0
LINE
8
BLACK
6
CONTINUOUS
10
144.058
20
-144.952
11
144.058
21
-145.428
0
LINE
8
BLACK
6
CONTINUOUS
10
144.058
20
-145.428
11
143.962
21
-145.809
0
LINE
8
BLACK
6
CONTINUOUS
10
143.962
20
-145.809
11
143.867
21
-146
0
LINE
8
BLACK
6
CONTINUOUS
10
143.867
20
-146
11
143.772
21
-146.095
0
LINE
8
BLACK
6
CONTINUOUS
10
143.772
20
-146.095
11
143.581
21
-146.19
0
LINE
8
BLACK
6
CONTINUOUS
10
143.581
20
-146.19
11
143.391
21
-146.19
0
LINE
8
BLACK
6
CONTINUOUS
10
143.391
20
-146.19
11
143.201
21
-146.095
0
LINE
8
BLACK
6
CONTINUOUS
10
143.201
20
-146.095
11
143.105
21
-146
0
LINE
8
BLACK
6
CONTINUOUS
10
143.105
20
-146
11
143.01
21
-145.809
0
LINE
8
BLACK
6
CONTINUOUS
10
143.01
20
-145.809
11
142.915
21
-145.428
0
LINE
8
BLACK
6
CONTINUOUS
10
142.915
20
-145.428
11
142.915
21
-144.952
0
LINE
8
BLACK
6
CONTINUOUS
10
142.915
20
-144.952
11
143.01
21
-144.571
0
LINE
8
BLACK
6
CONTINUOUS
10
143.01
20
-144.571
11
143.105
21
-144.381
0
LINE
8
BLACK
6
CONTINUOUS
10
143.105
20
-144.381
11
143.201
21
-144.286
0
LINE
8
BLACK
6
CONTINUOUS
10
143.201
20
-144.286
11
143.391
21
-144.19
0
LINE
8
BLACK
6
CONTINUOUS
10
144.724
20
-144.19
11
145.962
21
-144.19
0
LINE
8
BLACK
6
CONTINUOUS
10
145.962
20
-144.19
11
145.296
21
-144.952
0
LINE
8
BLACK
6
CONTINUOUS
10
145.296
20
-144.952
11
145.581
21
-144.952
0
LINE
8
BLACK
6
CONTINUOUS
10
145.581
20
-144.952
11
145.772
21
-145.048
0
LINE
8
BLACK
6
CONTINUOUS
10
145.772
20
-145.048
11
145.867
21
-145.143
0
LINE
8
BLACK
6
CONTINUOUS
10
145.867
20
-145.143
11
145.962
21
-145.333
0
LINE
8
BLACK
6
CONTINUOUS
10
145.962
20
-145.333
11
145.962
21
-145.809
0
LINE
8
BLACK
6
CONTINUOUS
10
145.962
20
-145.809
11
145.867
21
-146
0
LINE
8
BLACK
6
CONTINUOUS
10
145.867
20
-146
11
145.772
21
-146.095
0
LINE
8
BLACK
6
CONTINUOUS
10
145.772
20
-146.095
11
145.581
21
-146.19
0
LINE
8
BLACK
6
CONTINUOUS
10
145.581
20
-146.19
11
145.01
21
-146.19
0
LINE
8
BLACK
6
CONTINUOUS
10
145.01
20
-146.19
11
144.82
21
-146.095
0
LINE
8
BLACK
6
CONTINUOUS
10
144.82
20
-146.095
11
144.724
21
-146
0
LINE
8
BLACK
6
CONTINUOUS
10
147.677
20
-144.19
11
147.296
21
-144.19
0
LINE
8
BLACK
6
CONTINUOUS
10
147.296
20
-144.19
11
147.105
21
-144.286
0
LINE
8
BLACK
6
CONTINUOUS
10
147.105
20
-144.286
11
147.01
21
-144.381
0
LINE
8
BLACK
6
CONTINUOUS
10
147.01
20
-144.381
11
146.82
21
-144.667
0
LINE
8
BLACK
6
CONTINUOUS
10
146.82
20
-144.667
11
146.724
21
-145.048
0
LINE
8
BLACK
6
CONTINUOUS
10
146.724
20
-145.048
11
146.724
21
-145.809
0
LINE
8
BLACK
6
CONTINUOUS
10
146.724
20
-145.809
11
146.82
21
-146
0
LINE
8
BLACK
6
CONTINUOUS
10
146.82
20
-146
11
146.915
21
-146.095
0
LINE
8
BLACK
6
CONTINUOUS
10
146.915
20
-146.095
11
147.105
21
-146.19
0
LINE
8
BLACK
6
CONTINUOUS
10
147.105
20
-146.19
11
147.486
21
-146.19
0
LINE
8
BLACK
6
CONTINUOUS
10
147.486
20
-146.19
11
147.677
21
-146.095
0
LINE
8
BLACK
6
CONTINUOUS
10
147.677
20
-146.095
11
147.772
21
-146
0
LINE
8
BLACK
6
CONTINUOUS
10
147.772
20
-146
11
147.867
21
-145.809
0
LINE
8
BLACK
6
CONTINUOUS
10
147.867
20
-145.809
11
147.867
21
-145.333
0
LINE
8
BLACK
6
CONTINUOUS
10
147.867
20
-145.333
11
147.772
21
-145.143
0
LINE
8
BLACK
6
CONTINUOUS
10
147.772
20
-145.143
11
147.677
21
-145.048
0
LINE
8
BLACK
6
CONTINUOUS
10
147.677
20
-145.048
11
147.486
21
-144.952
0
LINE
8
BLACK
6
CONTINUOUS
10
147.486
20
-144.952
11
147.105
21
-144.952
0
LINE
8
BLACK
6
CONTINUOUS
10
147.105
20
-144.952
11
146.915
21
-145.048
0
LINE
8
BLACK
6
CONTINUOUS
10
146.915
20
-145.048
11
146.82
21
-145.143
0
LINE
8
BLACK
6
CONTINUOUS
10
146.82
20
-145.143
11
146.724
21
-145.333
0
LINE
8
BLACK
6
CONTINUOUS
10
149.105
20
-144.19
11
149.296
21
-144.19
0
LINE
8
BLACK
6
CONTINUOUS
10
149.296
20
-144.19
11
149.486
21
-144.286
0
LINE
8
BLACK
6
CONTINUOUS
10
149.486
20
-144.286
11
149.581
21
-144.381
0
LINE
8
BLACK
6
CONTINUOUS
10
149.581
20
-144.381
11
149.677
21
-144.571
0
LINE
8
BLACK
6
CONTINUOUS
10
149.677
20
-144.571
11
149.772
21
-144.952
0
LINE
8
BLACK
6
CONTINUOUS
10
149.772
20
-144.952
11
149.772
21
-145.428
0
LINE
8
BLACK
6
CONTINUOUS
10
149.772
20
-145.428
11
149.677
21
-145.809
0
LINE
8
BLACK
6
CONTINUOUS
10
149.677
20
-145.809
11
149.581
21
-146
0
LINE
8
BLACK
6
CONTINUOUS
10
149.581
20
-146
11
149.486
21
-146.095
0
LINE
8
BLACK
6
CONTINUOUS
10
149.486
20
-146.095
11
149.296
21
-146.19
0
LINE
8
BLACK
6
CONTINUOUS
10
149.296
20
-146.19
11
149.105
21
-146.19
0
LINE
8
BLACK
6
CONTINUOUS
10
149.105
20
-146.19
11
148.915
21
-146.095
0
LINE
8
BLACK
6
CONTINUOUS
10
148.915
20
-146.095
11
148.82
21
-146
0
LINE
8
BLACK
6
CONTINUOUS
10
148.82
20
-146
11
148.724
21
-145.809
0
LINE
8
BLACK
6
CONTINUOUS
10
148.724
20
-145.809
11
148.629
21
-145.428
0
LINE
8
BLACK
6
CONTINUOUS
10
148.629
20
-145.428
11
148.629
21
-144.952
0
LINE
8
BLACK
6
CONTINUOUS
10
148.629
20
-144.952
11
148.724
21
-144.571
0
LINE
8
BLACK
6
CONTINUOUS
10
148.724
20
-144.571
11
148.82
21
-144.381
0
LINE
8
BLACK
6
CONTINUOUS
10
148.82
20
-144.381
11
148.915
21
-144.286
0
LINE
8
BLACK
6
CONTINUOUS
10
148.915
20
-144.286
11
149.105
21
-144.19
0
LINE
8
BLACK
6
CONTINUOUS
10
150.534
20
-144.19
11
150.534
21
-144.571
0
LINE
8
BLACK
6
CONTINUOUS
10
151.296
20
-144.19
11
151.296
21
-144.571
0
LINE
8
BLACK
6
CONTINUOUS
10
154.248
20
-146.952
11
154.153
21
-146.857
0
LINE
8
BLACK
6
CONTINUOUS
10
154.153
20
-146.857
11
153.962
21
-146.571
0
LINE
8
BLACK
6
CONTINUOUS
10
153.962
20
-146.571
11
153.867
21
-146.381
0
LINE
8
BLACK
6
CONTINUOUS
10
153.867
20
-146.381
11
153.772
21
-146.095
0
LINE
8
BLACK
6
CONTINUOUS
10
153.772
20
-146.095
11
153.677
21
-145.619
0
LINE
8
BLACK
6
CONTINUOUS
10
153.677
20
-145.619
11
153.677
21
-145.238
0
LINE
8
BLACK
6
CONTINUOUS
10
153.677
20
-145.238
11
153.772
21
-144.762
0
LINE
8
BLACK
6
CONTINUOUS
10
153.772
20
-144.762
11
153.867
21
-144.476
0
LINE
8
BLACK
6
CONTINUOUS
10
153.867
20
-144.476
11
153.962
21
-144.286
0
LINE
8
BLACK
6
CONTINUOUS
10
153.962
20
-144.286
11
154.153
21
-144
0
LINE
8
BLACK
6
CONTINUOUS
10
154.153
20
-144
11
154.248
21
-143.905
0
LINE
8
BLACK
6
CONTINUOUS
10
154.82
20
-144.19
11
156.058
21
-144.19
0
LINE
8
BLACK
6
CONTINUOUS
10
156.058
20
-144.19
11
155.391
21
-144.952
0
LINE
8
BLACK
6
CONTINUOUS
10
155.391
20
-144.952
11
155.677
21
-144.952
0
LINE
8
BLACK
6
CONTINUOUS
10
155.677
20
-144.952
11
155.867
21
-145.048
0
LINE
8
BLACK
6
CONTINUOUS
10
155.867
20
-145.048
11
155.962
21
-145.143
0
LINE
8
BLACK
6
CONTINUOUS
10
155.962
20
-145.143
11
156.058
21
-145.333
0
LINE
8
BLACK
6
CONTINUOUS
10
156.058
20
-145.333
11
156.058
21
-145.809
0
LINE
8
BLACK
6
CONTINUOUS
10
156.058
20
-145.809
11
155.962
21
-146
0
LINE
8
BLACK
6
CONTINUOUS
10
155.962
20
-146
11
155.867
21
-146.095
0
LINE
8
BLACK
6
CONTINUOUS
10
155.867
20
-146.095
11
155.677
21
-146.19
0
LINE
8
BLACK
6
CONTINUOUS
10
155.677
20
-146.19
11
155.105
21
-146.19
0
LINE
8
BLACK
6
CONTINUOUS
10
155.105
20
-146.19
11
154.915
21
-146.095
0
LINE
8
BLACK
6
CONTINUOUS
10
154.915
20
-146.095
11
154.82
21
-146
0
LINE
8
BLACK
6
CONTINUOUS
10
157.772
20
-144.857
11
157.772
21
-146.19
0
LINE
8
BLACK
6
CONTINUOUS
10
157.296
20
-144.095
11
156.82
21
-145.524
0
LINE
8
BLACK
6
CONTINUOUS
10
156.82
20
-145.524
11
158.058
21
-145.524
0
LINE
8
BLACK
6
CONTINUOUS
10
160.343
20
-146.19
11
160.343
21
-144.19
0
LINE
8
BLACK
6
CONTINUOUS
10
161.201
20
-146.19
11
161.201
21
-145.143
0
LINE
8
BLACK
6
CONTINUOUS
10
161.201
20
-145.143
11
161.105
21
-144.952
0
LINE
8
BLACK
6
CONTINUOUS
10
161.105
20
-144.952
11
160.915
21
-144.857
0
LINE
8
BLACK
6
CONTINUOUS
10
160.915
20
-144.857
11
160.629
21
-144.857
0
LINE
8
BLACK
6
CONTINUOUS
10
160.629
20
-144.857
11
160.439
21
-144.952
0
LINE
8
BLACK
6
CONTINUOUS
10
160.439
20
-144.952
11
160.343
21
-145.048
0
LINE
8
BLACK
6
CONTINUOUS
10
162.439
20
-146.19
11
162.248
21
-146.095
0
LINE
8
BLACK
6
CONTINUOUS
10
162.248
20
-146.095
11
162.153
21
-146
0
LINE
8
BLACK
6
CONTINUOUS
10
162.153
20
-146
11
162.058
21
-145.809
0
LINE
8
BLACK
6
CONTINUOUS
10
162.058
20
-145.809
11
162.058
21
-145.238
0
LINE
8
BLACK
6
CONTINUOUS
10
162.058
20
-145.238
11
162.153
21
-145.048
0
LINE
8
BLACK
6
CONTINUOUS
10
162.153
20
-145.048
11
162.248
21
-144.952
0
LINE
8
BLACK
6
CONTINUOUS
10
162.248
20
-144.952
11
162.439
21
-144.857
0
LINE
8
BLACK
6
CONTINUOUS
10
162.439
20
-144.857
11
162.724
21
-144.857
0
LINE
8
BLACK
6
CONTINUOUS
10
162.724
20
-144.857
11
162.915
21
-144.952
0
LINE
8
BLACK
6
CONTINUOUS
10
162.915
20
-144.952
11
163.01
21
-145.048
0
LINE
8
BLACK
6
CONTINUOUS
10
163.01
20
-145.048
11
163.105
21
-145.238
0
LINE
8
BLACK
6
CONTINUOUS
10
163.105
20
-145.238
11
163.105
21
-145.809
0
LINE
8
BLACK
6
CONTINUOUS
10
163.105
20
-145.809
11
163.01
21
-146
0
LINE
8
BLACK
6
CONTINUOUS
10
163.01
20
-146
11
162.915
21
-146.095
0
LINE
8
BLACK
6
CONTINUOUS
10
162.915
20
-146.095
11
162.724
21
-146.19
0
LINE
8
BLACK
6
CONTINUOUS
10
162.724
20
-146.19
11
162.439
21
-146.19
0
LINE
8
BLACK
6
CONTINUOUS
10
164.248
20
-146.19
11
164.058
21
-146.095
0
LINE
8
BLACK
6
CONTINUOUS
10
164.058
20
-146.095
11
163.962
21
-145.905
0
LINE
8
BLACK
6
CONTINUOUS
10
163.962
20
-145.905
11
163.962
21
-144.19
0
LINE
8
BLACK
6
CONTINUOUS
10
165.772
20
-146.095
11
165.581
21
-146.19
0
LINE
8
BLACK
6
CONTINUOUS
10
165.581
20
-146.19
11
165.201
21
-146.19
0
LINE
8
BLACK
6
CONTINUOUS
10
165.201
20
-146.19
11
165.01
21
-146.095
0
LINE
8
BLACK
6
CONTINUOUS
10
165.01
20
-146.095
11
164.915
21
-145.905
0
LINE
8
BLACK
6
CONTINUOUS
10
164.915
20
-145.905
11
164.915
21
-145.143
0
LINE
8
BLACK
6
CONTINUOUS
10
164.915
20
-145.143
11
165.01
21
-144.952
0
LINE
8
BLACK
6
CONTINUOUS
10
165.01
20
-144.952
11
165.201
21
-144.857
0
LINE
8
BLACK
6
CONTINUOUS
10
165.201
20
-144.857
11
165.581
21
-144.857
0
LINE
8
BLACK
6
CONTINUOUS
10
165.581
20
-144.857
11
165.772
21
-144.952
0
LINE
8
BLACK
6
CONTINUOUS
10
165.772
20
-144.952
11
165.867
21
-145.143
0
LINE
8
BLACK
6
CONTINUOUS
10
165.867
20
-145.143
11
165.867
21
-145.333
0
LINE
8
BLACK
6
CONTINUOUS
10
165.867
20
-145.333
11
164.915
21
-145.524
0
LINE
8
BLACK
6
CONTINUOUS
10
166.629
20
-146.095
11
166.82
21
-146.19
0
LINE
8
BLACK
6
CONTINUOUS
10
166.82
20
-146.19
11
167.201
21
-146.19
0
LINE
8
BLACK
6
CONTINUOUS
10
167.201
20
-146.19
11
167.391
21
-146.095
0
LINE
8
BLACK
6
CONTINUOUS
10
167.391
20
-146.095
11
167.486
21
-145.905
0
LINE
8
BLACK
6
CONTINUOUS
10
167.486
20
-145.905
11
167.486
21
-145.809
0
LINE
8
BLACK
6
CONTINUOUS
10
167.486
20
-145.809
11
167.391
21
-145.619
0
LINE
8
BLACK
6
CONTINUOUS
10
167.391
20
-145.619
11
167.201
21
-145.524
0
LINE
8
BLACK
6
CONTINUOUS
10
167.201
20
-145.524
11
166.915
21
-145.524
0
LINE
8
BLACK
6
CONTINUOUS
10
166.915
20
-145.524
11
166.724
21
-145.428
0
LINE
8
BLACK
6
CONTINUOUS
10
166.724
20
-145.428
11
166.629
21
-145.238
0
LINE
8
BLACK
6
CONTINUOUS
10
166.629
20
-145.238
11
166.629
21
-145.143
0
LINE
8
BLACK
6
CONTINUOUS
10
166.629
20
-145.143
11
166.724
21
-144.952
0
LINE
8
BLACK
6
CONTINUOUS
10
166.724
20
-144.952
11
166.915
21
-144.857
0
LINE
8
BLACK
6
CONTINUOUS
10
166.915
20
-144.857
11
167.201
21
-144.857
0
LINE
8
BLACK
6
CONTINUOUS
10
167.201
20
-144.857
11
167.391
21
-144.952
0
LINE
8
BLACK
6
CONTINUOUS
10
168.153
20
-146.952
11
168.248
21
-146.857
0
LINE
8
BLACK
6
CONTINUOUS
10
168.248
20
-146.857
11
168.439
21
-146.571
0
LINE
8
BLACK
6
CONTINUOUS
10
168.439
20
-146.571
11
168.534
21
-146.381
0
LINE
8
BLACK
6
CONTINUOUS
10
168.534
20
-146.381
11
168.629
21
-146.095
0
LINE
8
BLACK
6
CONTINUOUS
10
168.629
20
-146.095
11
168.724
21
-145.619
0
LINE
8
BLACK
6
CONTINUOUS
10
168.724
20
-145.619
11
168.724
21
-145.238
0
LINE
8
BLACK
6
CONTINUOUS
10
168.724
20
-145.238
11
168.629
21
-144.762
0
LINE
8
BLACK
6
CONTINUOUS
10
168.629
20
-144.762
11
168.534
21
-144.476
0
LINE
8
BLACK
6
CONTINUOUS
10
168.534
20
-144.476
11
168.439
21
-144.286
0
LINE
8
BLACK
6
CONTINUOUS
10
168.439
20
-144.286
11
168.248
21
-144
0
LINE
8
BLACK
6
CONTINUOUS
10
168.248
20
-144
11
168.153
21
-143.905
  0
ENDSEC
  0
EOF
