%TF.GenerationSoftware,KiCad,Pcbnew,6.0.9-1.fc36*%
%TF.CreationDate,2022-12-06T19:06:56+01:00*%
%TF.ProjectId,iBolit_daughter,69426f6c-6974-45f6-9461-756768746572,rev?*%
%TF.SameCoordinates,Original*%
%TF.FileFunction,Copper,L1,Top*%
%TF.FilePolarity,Positive*%
%FSLAX46Y46*%
G04 Gerber Fmt 4.6, Leading zero omitted, Abs format (unit mm)*
G04 Created by KiCad (PCBNEW 6.0.9-1.fc36) date 2022-12-06 19:06:56*
%MOMM*%
%LPD*%
G01*
G04 APERTURE LIST*
%TA.AperFunction,ComponentPad*%
%ADD10C,1.600000*%
%TD*%
%TA.AperFunction,ComponentPad*%
%ADD11O,1.600000X1.600000*%
%TD*%
%TA.AperFunction,ComponentPad*%
%ADD12C,1.308000*%
%TD*%
%TA.AperFunction,ComponentPad*%
%ADD13R,1.308000X1.308000*%
%TD*%
%TA.AperFunction,ComponentPad*%
%ADD14C,1.422400*%
%TD*%
%TA.AperFunction,ComponentPad*%
%ADD15O,2.844800X1.422400*%
%TD*%
%TA.AperFunction,Conductor*%
%ADD16C,0.762000*%
%TD*%
%TA.AperFunction,Conductor*%
%ADD17C,0.700000*%
%TD*%
%TA.AperFunction,Conductor*%
%ADD18C,1.016000*%
%TD*%
%TA.AperFunction,Conductor*%
%ADD19C,0.635000*%
%TD*%
G04 APERTURE END LIST*
D10*
%TO.P,C9,1*%
%TO.N,Net-(JP5-Pad1)*%
X164084000Y-122381000D03*
%TO.P,C9,2*%
%TO.N,/GND1*%
X164084000Y-127381000D03*
%TD*%
%TO.P,C8,1*%
%TO.N,Net-(DC2-Pad2)*%
X164084000Y-115316000D03*
%TO.P,C8,2*%
%TO.N,/GND2*%
X164084000Y-120316000D03*
%TD*%
%TO.P,C6,1*%
%TO.N,/GND1*%
X164084000Y-129493000D03*
%TO.P,C6,2*%
%TO.N,/-12VIN*%
X164084000Y-134493000D03*
%TD*%
%TO.P,C7,1*%
%TO.N,/GND2*%
X164084000Y-108157000D03*
%TO.P,C7,2*%
%TO.N,/-12VOUT*%
X164084000Y-113157000D03*
%TD*%
%TO.P,R1,1,1*%
%TO.N,/+5VIN*%
X123230000Y-115150000D03*
D11*
%TO.P,R1,2,2*%
%TO.N,Net-(JP5-Pad3)*%
X130850000Y-115150000D03*
%TD*%
D12*
%TO.P,DC2,4,+VOUT*%
%TO.N,/GND2*%
X167741600Y-111353600D03*
%TO.P,DC2,3,-VOUT*%
%TO.N,/-12VOUT*%
X167741600Y-113893600D03*
%TO.P,DC2,2,+VIN*%
%TO.N,Net-(DC2-Pad2)*%
X167741600Y-116433600D03*
%TO.P,DC2,1,-VIN*%
%TO.N,/GND2*%
X167741600Y-118973600D03*
%TD*%
%TO.P,DC1,4,+VOUT*%
%TO.N,Net-(JP5-Pad1)*%
X167741600Y-124688600D03*
%TO.P,DC1,3,-VOUT*%
%TO.N,/GND1*%
X167741600Y-127228600D03*
%TO.P,DC1,2,+VIN*%
X167741600Y-129768600D03*
%TO.P,DC1,1,-VIN*%
%TO.N,/-12VIN*%
X167741600Y-132308600D03*
%TD*%
D13*
%TO.P,X3,GNDIN,GNDI*%
%TO.N,/GND1*%
X123736100Y-121513600D03*
%TO.P,X3,GNDOUT,GNDO*%
%TO.N,/GND2*%
X156121100Y-121513600D03*
%TO.P,X3,NC1,NC1*%
%TO.N,Net-(JP5-Pad3)*%
X123736100Y-124053600D03*
%TO.P,X3,NC2,NC2*%
%TO.N,Net-(JP5-Pad2)*%
X123736100Y-126593600D03*
%TO.P,X3,NC3,NC3*%
%TO.N,Net-(JP8-Pad3)*%
X156121100Y-126593600D03*
%TO.P,X3,NC4,NC4*%
%TO.N,Net-(JP8-Pad2)*%
X156121100Y-124053600D03*
%TO.P,X3,VIN,VIN*%
%TO.N,Net-(JP5-Pad1)*%
X123736100Y-129133600D03*
%TO.P,X3,VOUT,VOUT*%
%TO.N,Net-(DC2-Pad2)*%
X156121100Y-129133600D03*
%TD*%
%TO.P,X2,GNDIN,GNDI*%
%TO.N,/GND1*%
X123736100Y-101193600D03*
%TO.P,X2,GNDOUT,GNDO*%
%TO.N,/GND2*%
X156121100Y-101193600D03*
%TO.P,X2,NC1,NC1*%
%TO.N,Net-(JP4-Pad3)*%
X123736100Y-103733600D03*
%TO.P,X2,NC2,NC2*%
%TO.N,Net-(JP4-Pad2)*%
X123736100Y-106273600D03*
%TO.P,X2,NC3,NC3*%
%TO.N,Net-(JP7-Pad3)*%
X156121100Y-106273600D03*
%TO.P,X2,NC4,NC4*%
%TO.N,Net-(JP7-Pad2)*%
X156121100Y-103733600D03*
%TO.P,X2,VIN,VIN*%
%TO.N,/+12VIN*%
X123736100Y-108813600D03*
%TO.P,X2,VOUT,VOUT*%
%TO.N,/+12VOUT*%
X156121100Y-108813600D03*
%TD*%
%TO.P,X1,GNDIN,GNDI*%
%TO.N,/GND1*%
X123736100Y-80873600D03*
%TO.P,X1,GNDOUT,GNDO*%
%TO.N,/GND2*%
X156121100Y-80873600D03*
%TO.P,X1,NC1,NC1*%
%TO.N,Net-(JP3-Pad3)*%
X123736100Y-83413600D03*
%TO.P,X1,NC2,NC2*%
%TO.N,Net-(JP3-Pad2)*%
X123736100Y-85953600D03*
%TO.P,X1,NC3,NC3*%
%TO.N,Net-(JP6-Pad3)*%
X156121100Y-85953600D03*
%TO.P,X1,NC4,NC4*%
%TO.N,Net-(JP6-Pad2)*%
X156121100Y-83413600D03*
%TO.P,X1,VIN,VIN*%
%TO.N,/+5VIN*%
X123736100Y-88493600D03*
%TO.P,X1,VOUT,VOUT*%
%TO.N,/+5VOUT*%
X156121100Y-88493600D03*
%TD*%
D14*
%TO.P,JP2,1,1*%
%TO.N,/-12VIN*%
X174536100Y-106273600D03*
%TO.P,JP2,2,2*%
%TO.N,/-12VOUT*%
X171996100Y-106273600D03*
%TO.P,JP2,3,3*%
%TO.N,/GND1*%
X174536100Y-103733600D03*
%TO.P,JP2,4,4*%
%TO.N,/GND2*%
X171996100Y-103733600D03*
%TO.P,JP2,5,5*%
%TO.N,/+12VIN*%
X174536100Y-101193600D03*
%TO.P,JP2,6,6*%
%TO.N,/+12VOUT*%
X171996100Y-101193600D03*
%TO.P,JP2,7,7*%
%TO.N,/GND1*%
X174536100Y-98653600D03*
%TO.P,JP2,8,8*%
%TO.N,/GND2*%
X171996100Y-98653600D03*
%TO.P,JP2,9,9*%
%TO.N,/+5VIN*%
X174536100Y-96113600D03*
%TO.P,JP2,10,10*%
%TO.N,/+5VOUT*%
X171996100Y-96113600D03*
%TD*%
D15*
%TO.P,JP3,4,4*%
%TO.N,/GND1*%
X123736100Y-80873600D03*
%TO.P,JP3,3,3*%
%TO.N,Net-(JP3-Pad3)*%
X123736100Y-83413600D03*
%TO.P,JP3,2,2*%
%TO.N,Net-(JP3-Pad2)*%
X123736100Y-85953600D03*
%TO.P,JP3,1,1*%
%TO.N,/+5VIN*%
X123736100Y-88493600D03*
%TD*%
%TO.P,JP4,4,4*%
%TO.N,/GND1*%
X123736100Y-101193600D03*
%TO.P,JP4,3,3*%
%TO.N,Net-(JP4-Pad3)*%
X123736100Y-103733600D03*
%TO.P,JP4,2,2*%
%TO.N,Net-(JP4-Pad2)*%
X123736100Y-106273600D03*
%TO.P,JP4,1,1*%
%TO.N,/+12VIN*%
X123736100Y-108813600D03*
%TD*%
%TO.P,JP5,4,4*%
%TO.N,/GND1*%
X123736100Y-121513600D03*
%TO.P,JP5,3,3*%
%TO.N,Net-(JP5-Pad3)*%
X123736100Y-124053600D03*
%TO.P,JP5,2,2*%
%TO.N,Net-(JP5-Pad2)*%
X123736100Y-126593600D03*
%TO.P,JP5,1,1*%
%TO.N,Net-(JP5-Pad1)*%
X123736100Y-129133600D03*
%TD*%
%TO.P,JP6,4,4*%
%TO.N,/+5VOUT*%
X156121100Y-88493600D03*
%TO.P,JP6,3,3*%
%TO.N,Net-(JP6-Pad3)*%
X156121100Y-85953600D03*
%TO.P,JP6,2,2*%
%TO.N,Net-(JP6-Pad2)*%
X156121100Y-83413600D03*
%TO.P,JP6,1,1*%
%TO.N,/GND2*%
X156121100Y-80873600D03*
%TD*%
%TO.P,JP7,4,4*%
%TO.N,/+12VOUT*%
X156121100Y-108813600D03*
%TO.P,JP7,3,3*%
%TO.N,Net-(JP7-Pad3)*%
X156121100Y-106273600D03*
%TO.P,JP7,2,2*%
%TO.N,Net-(JP7-Pad2)*%
X156121100Y-103733600D03*
%TO.P,JP7,1,1*%
%TO.N,/GND2*%
X156121100Y-101193600D03*
%TD*%
%TO.P,JP8,4,4*%
%TO.N,Net-(DC2-Pad2)*%
X156121100Y-129133600D03*
%TO.P,JP8,3,3*%
%TO.N,Net-(JP8-Pad3)*%
X156121100Y-126593600D03*
%TO.P,JP8,2,2*%
%TO.N,Net-(JP8-Pad2)*%
X156121100Y-124053600D03*
%TO.P,JP8,1,1*%
%TO.N,/GND2*%
X156121100Y-121513600D03*
%TD*%
D16*
%TO.N,/GND1*%
X123736100Y-101193600D02*
X124155200Y-101193600D01*
X124155200Y-101193600D02*
X127463550Y-97885250D01*
X127463550Y-97885250D02*
X168687750Y-97885250D01*
X168687750Y-97885250D02*
X170726100Y-99923600D01*
%TO.N,/+12VIN*%
X123736100Y-108813600D02*
X125006100Y-108813600D01*
X125006100Y-108813600D02*
X134245350Y-99574350D01*
X134245350Y-99574350D02*
X167836850Y-99574350D01*
X167836850Y-99574350D02*
X170726100Y-102463600D01*
%TO.N,Net-(DC2-Pad2)*%
X156121100Y-129133600D02*
X154216100Y-129133600D01*
X154216100Y-129133600D02*
X152311100Y-127228600D01*
X152311100Y-127228600D02*
X152311100Y-120243600D01*
X152311100Y-120243600D02*
X157238700Y-115316000D01*
X157238700Y-115316000D02*
X164084000Y-115316000D01*
%TO.N,/-12VIN*%
X174536100Y-106273600D02*
X174536100Y-126199900D01*
X174536100Y-126199900D02*
X168427400Y-132308600D01*
X168427400Y-132308600D02*
X167741600Y-132308600D01*
%TO.N,/GND1*%
X120561100Y-99923600D02*
X120561100Y-101053900D01*
X120561100Y-101053900D02*
X120700800Y-101193600D01*
X120700800Y-101193600D02*
X123736100Y-101193600D01*
D17*
X170726100Y-99923600D02*
X173266100Y-99923600D01*
D16*
X173266100Y-99923600D02*
X174536100Y-98653600D01*
%TO.N,/+12VIN*%
X173266100Y-102463600D02*
X174536100Y-101193600D01*
D17*
X170726100Y-102463600D02*
X173266100Y-102463600D01*
D16*
%TO.N,/GND2*%
X171996100Y-103733600D02*
X171348400Y-103733600D01*
X171348400Y-103733600D02*
X169164000Y-105918000D01*
X169164000Y-105918000D02*
X169164000Y-109956600D01*
X169164000Y-109956600D02*
X167767000Y-111353600D01*
%TO.N,/-12VOUT*%
X171996100Y-106273600D02*
X171996100Y-111086900D01*
X171996100Y-111086900D02*
X169189400Y-113893600D01*
X169189400Y-113893600D02*
X167767000Y-113893600D01*
D18*
%TO.N,/+5VIN*%
X123736100Y-88493600D02*
X131356100Y-96113600D01*
X131356100Y-96113600D02*
X169456100Y-96113600D01*
D19*
X169456100Y-96113600D02*
X170726100Y-94843600D01*
X170726100Y-94843600D02*
X173266100Y-94843600D01*
X173266100Y-94843600D02*
X174536100Y-96113600D01*
X169456100Y-96113600D02*
X170726100Y-97383600D01*
X170726100Y-97383600D02*
X173266100Y-97383600D01*
X173266100Y-97383600D02*
X174536100Y-96113600D01*
D16*
%TO.N,/GND1*%
X123736100Y-80873600D02*
X121831100Y-80873600D01*
X121831100Y-80873600D02*
X120561100Y-82143600D01*
X120561100Y-82143600D02*
X120561100Y-99923600D01*
X123736100Y-121513600D02*
X122466100Y-121513600D01*
X122466100Y-121513600D02*
X120561100Y-119608600D01*
X120561100Y-119608600D02*
X120561100Y-99923600D01*
X174536100Y-98653600D02*
X176441100Y-100558600D01*
X176441100Y-100558600D02*
X176441100Y-101828600D01*
X176441100Y-101828600D02*
X174536100Y-103733600D01*
%TD*%
M02*
