%TF.GenerationSoftware,KiCad,Pcbnew,6.0.9-1.fc36*%
%TF.CreationDate,2022-12-06T19:06:57+01:00*%
%TF.ProjectId,iBolit_daughter,69426f6c-6974-45f6-9461-756768746572,rev?*%
%TF.SameCoordinates,Original*%
%TF.FileFunction,Soldermask,Top*%
%TF.FilePolarity,Negative*%
%FSLAX46Y46*%
G04 Gerber Fmt 4.6, Leading zero omitted, Abs format (unit mm)*
G04 Created by KiCad (PCBNEW 6.0.9-1.fc36) date 2022-12-06 19:06:57*
%MOMM*%
%LPD*%
G01*
G04 APERTURE LIST*
G04 Aperture macros list*
%AMRoundRect*
0 Rectangle with rounded corners*
0 $1 Rounding radius*
0 $2 $3 $4 $5 $6 $7 $8 $9 X,Y pos of 4 corners*
0 Add a 4 corners polygon primitive as box body*
4,1,4,$2,$3,$4,$5,$6,$7,$8,$9,$2,$3,0*
0 Add four circle primitives for the rounded corners*
1,1,$1+$1,$2,$3*
1,1,$1+$1,$4,$5*
1,1,$1+$1,$6,$7*
1,1,$1+$1,$8,$9*
0 Add four rect primitives between the rounded corners*
20,1,$1+$1,$2,$3,$4,$5,0*
20,1,$1+$1,$4,$5,$6,$7,0*
20,1,$1+$1,$6,$7,$8,$9,0*
20,1,$1+$1,$8,$9,$2,$3,0*%
G04 Aperture macros list end*
%ADD10C,1.600000*%
%ADD11O,1.600000X1.600000*%
%ADD12C,1.562000*%
%ADD13RoundRect,0.127000X-0.654000X-0.654000X0.654000X-0.654000X0.654000X0.654000X-0.654000X0.654000X0*%
%ADD14C,1.676400*%
%ADD15O,3.098800X1.676400*%
G04 APERTURE END LIST*
D10*
%TO.C,C9*%
X164084000Y-122381000D03*
X164084000Y-127381000D03*
%TD*%
%TO.C,C8*%
X164084000Y-115316000D03*
X164084000Y-120316000D03*
%TD*%
%TO.C,C6*%
X164084000Y-129493000D03*
X164084000Y-134493000D03*
%TD*%
%TO.C,C7*%
X164084000Y-108157000D03*
X164084000Y-113157000D03*
%TD*%
%TO.C,R1*%
X123230000Y-115150000D03*
D11*
X130850000Y-115150000D03*
%TD*%
D12*
%TO.C,DC2*%
X167741600Y-111353600D03*
X167741600Y-113893600D03*
X167741600Y-116433600D03*
X167741600Y-118973600D03*
%TD*%
%TO.C,DC1*%
X167741600Y-124688600D03*
X167741600Y-127228600D03*
X167741600Y-129768600D03*
X167741600Y-132308600D03*
%TD*%
D13*
%TO.C,X3*%
X123736100Y-121513600D03*
X156121100Y-121513600D03*
X123736100Y-124053600D03*
X123736100Y-126593600D03*
X156121100Y-126593600D03*
X156121100Y-124053600D03*
X123736100Y-129133600D03*
X156121100Y-129133600D03*
%TD*%
%TO.C,X2*%
X123736100Y-101193600D03*
X156121100Y-101193600D03*
X123736100Y-103733600D03*
X123736100Y-106273600D03*
X156121100Y-106273600D03*
X156121100Y-103733600D03*
X123736100Y-108813600D03*
X156121100Y-108813600D03*
%TD*%
%TO.C,X1*%
X123736100Y-80873600D03*
X156121100Y-80873600D03*
X123736100Y-83413600D03*
X123736100Y-85953600D03*
X156121100Y-85953600D03*
X156121100Y-83413600D03*
X123736100Y-88493600D03*
X156121100Y-88493600D03*
%TD*%
D14*
%TO.C,JP2*%
X174536100Y-106273600D03*
X171996100Y-106273600D03*
X174536100Y-103733600D03*
X171996100Y-103733600D03*
X174536100Y-101193600D03*
X171996100Y-101193600D03*
X174536100Y-98653600D03*
X171996100Y-98653600D03*
X174536100Y-96113600D03*
X171996100Y-96113600D03*
%TD*%
D15*
%TO.C,JP3*%
X123736100Y-80873600D03*
X123736100Y-83413600D03*
X123736100Y-85953600D03*
X123736100Y-88493600D03*
%TD*%
%TO.C,JP4*%
X123736100Y-101193600D03*
X123736100Y-103733600D03*
X123736100Y-106273600D03*
X123736100Y-108813600D03*
%TD*%
%TO.C,JP5*%
X123736100Y-121513600D03*
X123736100Y-124053600D03*
X123736100Y-126593600D03*
X123736100Y-129133600D03*
%TD*%
%TO.C,JP6*%
X156121100Y-88493600D03*
X156121100Y-85953600D03*
X156121100Y-83413600D03*
X156121100Y-80873600D03*
%TD*%
%TO.C,JP7*%
X156121100Y-108813600D03*
X156121100Y-106273600D03*
X156121100Y-103733600D03*
X156121100Y-101193600D03*
%TD*%
%TO.C,JP8*%
X156121100Y-129133600D03*
X156121100Y-126593600D03*
X156121100Y-124053600D03*
X156121100Y-121513600D03*
%TD*%
M02*
